<svg xmlns="http://www.w3.org/2000/svg" data-name="Layer 1" viewBox="0 0 950 950"><path d="M453.8 65.16V52.32c8.68-9.9 14.93-20.59 20.02-32.82 5.09 12.23 11.34 22.92 20.02 32.82v12.84l-10.01 11.06-10.01-11.06-10.01 11.06z" style="fill-rule:evenodd;fill:#e50013"/><path d="M453.58 65.16V52.24l.05-.06a107.6 107.6 0 0 0 11.33-15.51c3.28-5.43 6.11-11.15 8.65-17.25l.2-.48.2.48c2.54 6.1 5.37 11.82 8.65 17.25s7 10.57 11.33 15.51l.05.06v13.01c-3.42 3.76-6.82 7.54-10.23 11.3L473.8 65.49l-10.01 11.06c-3.41-3.77-6.81-7.54-10.23-11.3v-.08Zm.43-12.76v12.68l9.79 10.82 10.01-11.06 10.01 11.06 9.79-10.82V52.4c-4.33-4.94-8.05-10.08-11.33-15.51-3.2-5.3-5.98-10.89-8.48-16.83-2.5 5.95-5.27 11.53-8.48 16.83-3.28 5.43-7 10.56-11.33 15.51Z" style="fill-rule:evenodd;fill:#231916"/><path d="M721.87 475.39c-11.36 1.18-37.58 9.02-48.19 13.14 8.55-14.39 34.28-26.22 49.23-32.54 21.59-9.13 51.41-16.1 75.12-26.25 13.26-5.67 23.75-13.91 32.89-22.5 19.39-18.23 34-44.66 36.45-71.43 8.17 19.79 15.95 43.43 13.67 64.47-2.3 21.26-9.51 33.46-26.06 48.65-15.64 14.36-34.95 22.52-59.05 26.45-24.43 3.98-49.68-2.53-74.06 0ZM473.82 769.75c24.34-25.86 43.87-51.04 82.82-54.87 39.76-3.91 58.82 21.86 86.78 49.23 22.23 21.76 41.57 31.54 73.69 28.83 16.33-1.38 53.84-17.45 59.82-37.18-24.5 10.95-80.05-13.73-100.26-25.39-28.24-16.28-54.38-30.03-83.91-43.76 22.84-12.21 52.04-28.06 78.59-28.06s51.09 10.39 74.92 21.03c12.52 5.59 23.63 10.9 37.54 10.89 42.58-.06 63.63-27.33 77.4-65.92-17.82 6.6-38.26 14.57-59.46 12.1-17.02-1.99-32-7.85-47.91-13.7-16.69-6.14-36.48-9.49-54.38-9.49-28.34 0-49.72 14.92-70.36 32.81 12.74-52.98 46.58-104.54 107.79-104.54 28.48 0 57.41 18.18 85.1 12.93 35.68-6.76 57.61-29.27 65.71-58.35 4.55-16.31 4.18-35.26.84-53.26-23.78 30.46-50.45 50.5-89.91 53.82-25.04 2.11-49.53-5.19-74.69-2.71-25.81 2.55-44.48 10.08-63.42 29-8.72 8.71-19.21 28.69-20.44 31.08-4.7-32.05 6.46-61.25 29.21-82.59 27.58-25.88 66.38-37.96 104.31-53.22 31.27-12.58 56.67-29.39 67.38-63 13.42-42.13-3.21-102.25-35.86-135.31 2.32 31.04-4.74 65.03-22.21 90.99-22.45 33.35-59.13 50.49-91.09 72.84-65.04 45.49-73.59 131.13-72.39 146.72-7.59-24.35-17.1-50.55-17.68-76.19-.72-31.85 13.32-69.66 32.7-96.55 32.99-45.75 63.71-84.36 58.83-140.19-7.03-80.37-82.45-138.73-156.09-160.77.42 2.5 29.95 38.8 38.85 55.84 20.32 38.94 32.23 70.73 32.54 114.53.24 33.39-9.63 63.72-25.24 93.04-22.78 42.76-40.44 86.33-38.18 134.14 2.73 57.66 50.71 83.53 64.67 133.52 12.47 44.65-36.3 54.98-67.38 56.33-30.5 1.32-47.15 16.27-68.64 37.76-21.49-21.49-38.14-36.44-68.64-37.76-31.09-1.35-79.85-11.68-67.38-56.33 13.96-49.99 61.94-75.85 64.67-133.52 2.27-47.81-15.4-91.38-38.18-134.14-15.62-29.32-25.48-59.66-25.24-93.04.31-43.8 12.22-75.59 32.54-114.53 8.89-17.04 38.43-53.33 38.85-55.84-73.64 22.04-149.06 80.4-156.09 160.77-4.88 55.83 25.84 94.44 58.83 140.19 19.39 26.89 33.43 64.7 32.7 96.55-.58 25.63-10.09 51.84-17.68 76.19 1.2-15.59-7.35-101.23-72.39-146.72-31.96-22.35-68.64-39.49-91.09-72.84-17.48-25.96-24.53-59.95-22.21-90.99-32.64 33.06-49.28 93.18-35.86 135.31 10.71 33.61 36.12 50.42 67.38 63 37.92 15.26 76.73 27.34 104.31 53.22 22.74 21.34 33.91 50.54 29.21 82.59-1.24-2.39-11.72-22.37-20.44-31.08-18.94-18.92-37.61-26.45-63.42-29-25.15-2.48-49.64 4.82-74.69 2.71-39.47-3.32-66.13-23.37-89.91-53.82-3.34 18-3.71 36.95.84 53.26 8.11 29.08 30.03 51.59 65.71 58.35 27.68 5.24 56.62-12.93 85.1-12.93 61.22 0 95.05 51.55 107.79 104.54-20.65-17.89-42.03-32.81-70.36-32.81-17.9 0-37.68 3.35-54.38 9.49-15.92 5.86-30.89 11.72-47.91 13.7-21.19 2.47-41.63-5.5-59.46-12.1 13.77 38.59 34.81 65.87 77.4 65.92 13.91.02 25.02-5.29 37.54-10.89 23.83-10.65 48.73-21.03 74.92-21.03s55.75 15.86 78.59 28.06c-29.53 13.73-55.67 27.48-83.91 43.76-20.22 11.66-75.76 36.34-100.26 25.39 5.98 19.73 43.49 35.8 59.82 37.18 32.13 2.71 51.46-7.08 73.69-28.83 27.97-27.37 47.03-53.14 86.78-49.23 38.95 3.83 58.48 29.01 82.82 54.87Zm254.3-207.78c26.7-1.21 44.79 7.27 72.39 10.64 37.22 4.55 61.65-7.6 82.61-23.57-3.32 45.41-41.67 70.84-81.99 66.13-34.58-4.04-67.79-21.68-102.64-21.68-13.8 0-24.6 4.76-37.13 10.21 6.47-26.49 42.68-40.63 66.76-41.72Zm48.61-300.41c4.37-50.43-17.34-88.05-54.24-124.34-8.25-8.11-24.83-22.53-36.09-25.24 12.77 23.98 36.9 95.88 30.25 136.02-8.69 52.46-41.81 83.09-71.76 125.17-11.72 16.47-19.72 36.51-21.48 56.73 22.15-40.99 59.37-67.21 96.52-93 27.61-19.18 53.62-38.51 56.81-75.34Zm-1.04 446.02c16.45.92 28.36-2.12 44.23-7.3-9.01 24.22-32.01 38.64-57.7 39.32-20.71.55-42.15-7.51-59.96-21.38-15.51-12.07-58.03-33.35-72.81-33.17 20.09-6.13 34.67-9.26 55.91-7.3 31.79 2.93 57.41 27.99 90.33 29.83m-603.74 0c32.92-1.84 58.54-26.91 90.33-29.83 21.24-1.95 35.82 1.17 55.91 7.3-14.78-.18-57.3 21.1-72.81 33.17-17.82 13.87-39.26 21.93-59.96 21.38-25.69-.68-48.69-15.1-57.7-39.32 15.86 5.18 27.78 8.22 44.23 7.3m-1.04-446.02c-4.37-50.43 17.34-88.05 54.24-124.34 8.25-8.11 24.83-22.53 36.09-25.24-12.77 23.98-36.9 95.88-30.25 136.02 8.69 52.46 41.81 83.09 71.76 125.17 11.72 16.47 19.72 36.51 21.48 56.73-22.15-40.99-59.37-67.21-96.52-93-27.61-19.18-53.62-38.51-56.81-75.34Zm48.61 300.41c24.08 1.09 60.29 15.23 66.76 41.72-12.53-5.45-23.33-10.21-37.13-10.21-34.85 0-68.06 17.65-102.64 21.68-40.32 4.71-78.67-20.72-81.99-66.13 20.96 15.98 45.4 28.12 82.61 23.57 27.6-3.37 45.69-11.85 72.39-10.64Zm6.26-86.58c-24.38-2.53-49.63 3.98-74.06 0-24.1-3.93-43.41-12.09-59.05-26.45-16.55-15.19-23.76-27.4-26.06-48.65-2.28-21.04 5.5-44.69 13.67-64.47 2.45 26.77 17.06 53.2 36.45 71.43 9.14 8.59 19.62 16.83 32.89 22.5 23.72 10.14 53.53 17.12 75.12 26.25 14.95 6.32 40.68 18.15 49.23 32.54-10.61-4.12-36.83-11.97-48.19-13.14Z" style="fill:#f8cd00;fill-rule:evenodd"/><path d="M310.17 885.46c0 19.6-7.2 27.74-18.95 27.74s-18.65-8.43-18.65-27.74v-46.98c0-12.47-11.24-19.64-21.74-19.54v64.65c0 32.33 14.39 47.11 39.8 47.11s41.27-15.07 41.27-47.25v-64.51c-10.49-.1-21.74 5.48-21.74 19.54v46.98Zm91.04-253.16c7.08-23.9 14.3-55.63 16.7-86.81l36.11-469.1 9.06 10.01-19.9 557.63c-10.74-6.7-22.6-10.84-37.99-11.51-1.3-.06-2.63-.13-3.98-.22m79.9-548.1-7.29-8.06-7.29 8.06-17.61 563.71c8.33 6.08 16.22 13.69 24.9 22.36 8.68-8.68 16.57-16.29 24.9-22.37L481.11 84.19Zm23.35 559.82-19.9-557.63 9.06-10.01 36.1 469.1c2.4 31.19 9.62 62.92 16.7 86.81-1.35.09-2.68.16-3.97.22-15.39.67-27.25 4.81-37.99 11.51m91.66 178.36c-5.29-2.58-13.51-5.01-24.23-5.01-24.38 0-38.92 13.9-38.92 31.95 0 14.33 10.57 24.64 27.61 31.8 12.48 5.3 17.92 10.03 17.92 17.91s-6.31 13.75-18.36 13.75l-5.98-.37c-8.53-.53-19 2.63-22.66 11.97 5.29 3.15 16.6 6.18 27.76 6.18 26.29 0 41.12-14.06 41.12-33.26 0-14.47-8.08-24.64-26.14-32.52-13.8-6.16-19.39-9.74-19.39-17.62 0-6.16 5.16-12.88 16.6-12.18l5.73.35c8.63.53 17.94-3.89 18.95-12.96Zm53.66-3.44L602.76 929.1c8.75 3.71 20.08 2.92 24.94-8.84l4.92-11.92h34.32l4.92 11.92c4.86 11.76 16.19 12.55 24.94 8.84zm-12.43 73.37 12.43-30.1 12.43 30.1zm-166.36 19.03v-30.66h32.7v-17.33h-32.7v-26.64h30.29c11.49 0 16.05-9.19 15.97-17.76h-67.99v110.16h68c.08-8.57-4.48-17.76-15.97-17.76H471ZM411.8 881.5l-62.57-62.56V929.1c9.5.09 20.34-4.98 19.68-17.69v-46.73l62.57 64.42V818.94c-9.5-.09-19.68 4.96-19.68 17.69z" style="fill-rule:evenodd;fill:#f8cc00"/></svg>