<svg width="24" height="24" viewBox="0 0 24 24" fill="none" xmlns="http://www.w3.org/2000/svg">
<path fill-rule="evenodd" clip-rule="evenodd" d="M12 1.25C17.9142 1.25 22.75 6.08579 22.75 12C22.75 17.9142 17.9142 22.75 12 22.75C6.08579 22.75 1.25 17.9142 1.25 12C1.25 6.08579 6.08579 1.25 12 1.25ZM11.9951 15.75C11.3048 15.75 10.7451 16.3096 10.7451 17C10.7451 17.6904 11.3048 18.25 11.9951 18.25H12.0039C12.694 18.2497 13.2539 17.6902 13.2539 17C13.2539 16.3098 12.694 15.7503 12.0039 15.75H11.9951ZM12 5.75C11.3096 5.75 10.75 6.30964 10.75 7V13C10.75 13.6904 11.3096 14.25 12 14.25C12.6904 14.25 13.25 13.6904 13.25 13V7C13.25 6.30964 12.6904 5.75 12 5.75Z" fill="black"/>
</svg>
