<svg xmlns="http://www.w3.org/2000/svg" width="24" height="24" fill="none" viewBox="0 0 24 24"><path fill="#000" fill-rule="evenodd" d="M12 1.842c1.55 0 2.932 1.057 3.895 2.794l6.06 10.91c.92 1.66 1.065 3.333.299 4.636-.767 1.302-2.299 1.988-4.194 1.988H12a1 1 0 0 1-.117-.01H5.94c-1.9 0-3.433-.686-4.198-1.99-.765-1.302-.617-2.976.303-4.634l3.12-5.62 2.94-5.28C9.07 2.899 10.45 1.842 12 1.842m-.005 14.908a1.25 1.25 0 0 0 0 2.5h.009a1.25 1.25 0 0 0 0-2.5zm.005-11c-.69 0-1.25.56-1.25 1.25v6a1.25 1.25 0 0 0 2.5 0V7c0-.69-.56-1.25-1.25-1.25" clip-rule="evenodd"/></svg>