<svg xmlns="http://www.w3.org/2000/svg" width="1000" height="1000" fill="none" viewBox="0 0 1000 1000"><path fill="#005797" d="M571.536 456.799c0-33.703-22.326-56.148-49.484-69.762-17.708 3.998-38.511 6.331-57.933 6.497l4.879-12.567c4.404-.143 7.76-.428 11.354-.643v-84.329h35.036v78.879c29.371-8.997 41.652-27.063 41.652-48.056 0-26.895-19.66-39.748-41.748-39.748h-58.171v191.484c0 20.255 11.758 24.516 23.207 24.73v-99.586c13.138-.476 27.253-2.404 35.036-4.285v103.871c28.014-.024 56.148-17.733 56.148-46.485m-25.849-76.903c18.756 6.165 62.813 26.991 62.813 70.072s-38.63 67.811-84.472 67.811h-133.48l.143-11.02c24.206 0 31.394-3.309 31.394-28.943V315.655c0-28.538-10.853-30.323-31.418-30.323v-10.258c3.856-.095 52.34-.024 89.756 0-.761-20.113-11.401-21.565-25.634-21.565v-9.377h86.09v10.187c-13.876 0-24.634.642-25.396 20.755h8.569c19.374 0 66.906 6.902 67.001 47.508.072 28.49-18.494 46.603-45.318 57.338m-90.97 168.301c14.233 0 24.873-1.452 25.634-21.517h35.036c.762 20.089 11.52 20.732 25.397 20.732v10.187h-86.091v-9.402zM679 396.129C679 293.33 598.622 210 499.512 210S320 293.33 320 396.129s80.378 186.152 179.512 186.152S679 498.928 679 396.129M548.385 659.208c0-11.196-4.52-20.877-11.754-26.036-5.159-3.67-13.031-5.678-21.488-5.678-4.016 0-5.957.146-9.534.426v62.655c0 2.168.478 2.819 2.141 3.072 1.968.372 4.388.466 6.874.466 9.335 0 16.981-2.394 22.845-7.54 7.114-6.183 10.916-15.837 10.916-27.379m10.292-.704c0 14.733-5.106 26.78-15.025 34.904-7.526 6.13-17.047 8.976-30.943 8.976-2.845 0-8.058-.239-12.751-.239-4.694 0-8.511.106-12.939.186v-2.447c9.029 0 9.029-1.901 9.029-28.628v-22.566c0-25.304 0-26.793-8.63-26.793v-2.314c3.511 0 9.162-.133 13.125-.133 4.454 0 7.805-.279 14.387-.279 12.832 0 20.278 2.008 27.286 6.183 10.265 6.09 16.461 18.323 16.461 33.163m-86.909-9.614v54.226h-1.849c-18.735-22.778-30.211-36.647-37.484-45.37-4.827-5.877-8.523-10.518-13.789-17.526-.2 4.083-.173 8.285-.173 30.85 0 26.886 0 28.841 8.776 28.841v2.42c-4.933-.106-9.441-.213-13.683-.213-4.707 0-7.951.107-12.273.213v-2.393c8.869 0 8.869-1.982 8.869-28.868v-52.245h1.849c18.868 23.27 30.49 37.498 37.803 46.354 4.84 5.811 7.992 9.827 13.47 17.153.2-4.175.173-8.616.173-33.429 0-24.812 0-27.272-9.029-27.272v-2.407c4.136.107 8.55.213 12.672.213 4.415 0 8.417-.106 12.46-.213v2.407c-7.779.08-7.779 1.981-7.779 27.272m423.831 21.555h22.419l-.106-.386c-9.534-27.352-10.332-29.466-10.744-31.407-.599 1.901-1.41 4.029-11.476 31.407l-.106.386zm25.185 7.712H892.9c-7.686 20.039-8.218 21.675.744 21.675v2.473a453 453 0 0 0-13.297-.213c-5.053 0-7.952.106-10.345.213-3.736-.107-7.672-.213-12.805-.213-5.425 0-9.521.106-13.789.213v-2.473c8.962 0 8.962-1.676 8.962-28.549v-22.632c0-25.304 0-26.966-8.616-26.966v-2.487c4.002.106 8.457.213 13.15.213 5.067 0 10.319-.107 13.337-.213v2.487c-8.27 0-8.297 1.648-8.297 26.939v22.552c0 25.597.173 28.642 7.819 28.642 5.279 0 6.595-2.992 16.501-28.642L906.768 618h1.982l19.746 53.188c10.079 26.993 10.864 28.669 16.754 28.669v2.473c-2.087-.106-5.837-.213-11.209-.213s-10.864.107-14.029.213v-2.473c8.79 0 8.058-1.596.772-21.674m-85.221 2.539c0 12.646-8.83 22.499-24.773 22.499-6.489 0-13.31-1.795-16.914-3.604.452-4.826.718-11.781.811-18.921h2.327c.147 5.558 1.583 9.148 4.016 11.316 2.34 2.114 5.758 2.978 9.787 2.978 8.802 0 14.786-5.066 14.786-12.858 0-4.933-1.768-8.843-6.263-12.539-2.952-2.42-6.236-4.747-10.598-7.699-8.536-5.851-13.323-12.473-13.323-21.728 0-12.14 9.414-21.554 23.309-21.554 4.854 0 10.133.93 13.883 2.247-.399 6.13-.559 12.566-.625 18.19h-2.314c.12-5.053-.824-7.725-3.112-9.667-1.768-1.569-4.8-2.539-8.23-2.539-7.447 0-13.125 4.68-13.125 12.299 0 4.229 1.928 8.032 5.399 11.183 2.673 2.314 5.904 4.8 10.837 8.151 7.938 5.426 14.108 11.688 14.108 22.273m-92.906-9.534V648.65c0-25.305 0-26.967-7.54-26.967v-2.486c4.667.08 11.289.213 20.132.213 9.547 0 19.666-.107 26.607-.213-.425 5.797-.731 12.034-.784 18.336h-2.247c-.346-8.669-2.061-10.292-10.478-10.292H752.23v28.496h11.821c9.082 0 11.608-.186 12.273-5.438h2.167c-.212 2.792-.398 6.01-.398 9.108 0 3.63.186 7.127.398 10.545h-2.14c-.612-5.971-3.019-6.303-12.021-6.303h-12.1v25.836c0 4.149.199 4.388 4.109 4.415 4.999.026 9.773.066 15.384 0 5.705-.107 8.55-.838 9.428-9.401h2.234c-.279 5.039-.665 11.728-.665 17.805-7.194-.107-17.353-.213-26.78-.213-9.428 0-16.555.106-21.355.213v-2.474c8.044 0 8.044-1.675 8.044-28.628m-105.166-11.05c0-19.015-13.51-33.15-30.77-33.15s-30.849 14.135-30.849 33.841 13.59 34.014 30.636 34.014c17.047 0 30.969-13.47 30.969-34.692m10.558-.638c0 25.025-17.499 43.92-42.072 43.92-22.618 0-40.755-17.871-40.755-42.165s18.403-42.883 42.364-42.883c23.962 0 40.463 17.007 40.463 41.141m-263.588-10.904v22.552c0 26.98 0 28.669 9.162 28.669v2.473a504 504 0 0 0-13.922-.213c-5.425 0-9.521.107-13.763.213v-2.473c8.949 0 8.949-1.676 8.949-28.549v-22.632c0-25.304 0-26.966-8.616-26.966v-2.487c4.002.107 8.457.213 13.177.213 5.066 0 10.305-.106 13.337-.213v2.487c-8.284 0-8.311 1.649-8.311 26.94m-113.344 22.565V648.65c0-25.305 0-26.967-8.616-26.967v-2.486c3.71.106 8.284.213 13.323.213 5.04 0 9.135-.107 13.085-.213v2.486c-8.045 0-8.231 1.689-8.231 25.85v9.614l16.475-19.826c11.289-13.643 11.927-15.638 4.654-15.638v-2.486c5.093.106 8.63.213 12.898.213s8.643-.107 11.555-.213v2.486c-5.997 0-6.928 1.915-18.975 15.944l-17.765 21.155 21.302 25.251c11.848 14.135 14.029 15.811 19.467 15.811v2.473c-3.018-.107-7.3-.213-12.499-.213s-9.202.106-14.427.213v-2.473c8.643 0 6.435-2.314-3.99-15.239l-18.496-22.592-.213 10.478c0 25.704.027 27.339 9.069 27.339v2.474c-4.641-.107-8.311-.213-13.39-.213s-10.226.106-14.201.213v-2.474c8.949 0 8.949-1.675 8.949-28.628m-24.946-22.313v54.226h-1.861c-18.736-22.778-30.211-36.647-37.472-45.37-4.826-5.877-8.536-10.518-13.789-17.526-.199 4.083-.172 8.285-.172 30.85 0 26.886 0 28.841 8.776 28.841v2.42c-4.934-.106-9.441-.213-13.696-.213-4.694 0-6.144.107-10.465.213-2.101-.106-4.042-.213-9.415-.213s-10.863.107-14.028.213v-2.473c8.803 0 8.058-1.596.771-21.674h-27.897c-7.686 20.038-8.218 21.674.731 21.674v2.473a457 457 0 0 0-13.297-.213c-5.053 0-9.055.107-11.449.213v-2.473c6.051 0 6.928-1.622 17.406-28.669L140.75 618h1.968l19.746 53.188c9.481 25.358 10.758 28.376 15.757 28.642 6.29.333 6.277-4.8 6.277-28.775v-52.244h1.861c18.855 23.27 30.49 37.498 37.777 46.354 4.84 5.811 8.005 9.826 13.47 17.153.213-4.175.186-8.617.186-33.429s0-27.272-9.028-27.272v-2.407c4.135.106 8.536.213 12.658.213 4.415 0 8.431-.107 12.46-.213v2.407c-7.779.08-7.779 1.981-7.779 27.272m-116.496 21.568h22.419l-.106-.386c-9.534-27.352-10.332-29.466-10.744-31.407-.612 1.901-1.423 4.029-11.462 31.407zm-33.761 8.417c0-8.337-5.798-12.685-10.624-14.108-2.527-.745-5.785-1.223-9.322-1.223-1.13 0-3.031.039-4.055.132v25.93c0 3.178.146 3.577 1.396 4.069 1.343.492 3.59.571 5.226.571 3.297 0 7.087-.997 9.082-1.981 4.8-2.127 8.323-6.396 8.323-13.403m-3.443-37.764c0-9.401-6.117-14.108-14.946-14.108-2.753 0-4.535.213-5.638.319v28.496c.797.04 1.98.106 3.085.106 1.821 0 4.773-.16 7.167-.931 4.827-1.476 10.332-5.491 10.332-13.882m13.27 38.123c0 7.832-3.351 13.988-8.23 17.645-5.16 3.83-11.49 5.571-20.558 5.571-3.83 0-8.018-.319-11.635-.319-2.54 0-6.622.107-11.276.187v-2.447c8.643 0 8.643-1.676 8.643-28.629v-22.565c0-25.304 0-26.966-7.712-26.966v-2.234c3.191.026 8.178-.04 11.342-.04 2.673 0 6.53-.24 10.864-.24s8.497.519 11.435 1.41c7.14 2.074 13.63 8.337 13.63 19.44 0 10.146-7.38 17.699-14.693 18.949 10.159 1.383 18.163 9.374 18.163 20.238m612.717-30.331v54.226h-1.862c-18.749-22.778-30.211-36.647-37.471-45.37-4.827-5.877-8.55-10.518-13.802-17.526-.2 4.083-.173 8.285-.173 30.85 0 26.886 0 28.841 8.776 28.841v2.42c-4.947-.106-9.441-.213-13.683-.213-4.707 0-7.952.107-12.26.213v-2.393c8.869 0 8.869-1.982 8.869-28.868v-52.245h1.849c18.868 23.27 30.49 37.498 37.803 46.354 4.827 5.811 8.005 9.827 13.457 17.153.213-4.175.186-8.616.186-33.429 0-24.812 0-27.272-9.029-27.272v-2.407c4.136.107 8.524.213 12.672.213 4.388 0 8.404-.106 12.447-.213v2.407c-7.766.08-7.766 1.981-7.766 27.272m-368.808 98.027c-.944-1.051-2.154-2.035-3.603-2.886 2.912-.452 5.119-1.569 6.635-3.204 1.449-1.702 2.207-3.87 2.207-6.489 0-2.101-.505-3.87-1.449-5.505-1.011-1.569-2.274-2.686-3.923-3.338-1.649-.585-4.228-.917-7.832-.917h-14.214v34.798h6.755v-14.547h1.396c1.516 0 2.659.133 3.417.399.692.266 1.396.785 2.021 1.436.639.718 1.835 2.42 3.537 5.106l4.933 7.606h8.085l-4.109-6.808c-1.582-2.686-2.912-4.587-3.856-5.638zm-10.425-7.659h-4.986v-8.776h5.305c2.713 0 4.362.066 4.934.133 1.077.199 1.954.585 2.526 1.369.638.718.944 1.636.944 2.819 0 1.051-.253 1.902-.691 2.62-.506.651-1.144 1.183-1.902 1.436-.824.266-2.845.399-6.13.399m-42.843-8.79h9.986v28.908h6.755V730.48H323v-5.89h-26.674zm74.557-5.89-13.085 34.798h7.207l2.78-7.925h13.39l2.912 7.925h7.393l-13.457-34.798zm-1.011 21.036 4.481-12.912 4.614 12.912zm106.603-1.583h16.874v-5.824h-16.874v-7.739h18.137v-5.89h-24.905v34.798h25.53v-5.904h-18.762zm-74.437-19.188h-6.755v34.533h23.562v-5.904h-16.807zm56.047 22.074c-.944-1.051-2.154-2.035-3.603-2.886 2.912-.452 5.185-1.569 6.635-3.204 1.449-1.702 2.207-3.87 2.207-6.489 0-2.101-.505-3.87-1.449-5.505-1.011-1.569-2.274-2.686-3.923-3.338-1.649-.585-4.228-.917-7.832-.917h-14.215v34.798h6.755v-14.547h1.397c1.515 0 2.659.133 3.417.399.691.266 1.396.785 2.021 1.436.638.718 1.835 2.42 3.537 5.106l4.933 7.606h8.085l-4.109-6.808c-1.582-2.686-2.912-4.587-3.856-5.638zm-10.425-7.659h-4.986v-8.776h5.305c2.713 0 4.362.066 4.933.133 1.078.199 1.955.585 2.527 1.369.638.718.944 1.636.944 2.819 0 1.051-.253 1.902-.691 2.62-.506.651-1.144 1.183-1.902 1.436-.824.266-2.846.399-6.13.399m-371.92 1.636c1.45-.718 2.594-1.702 3.471-3.085.825-1.37 1.264-2.885 1.264-4.455 0-1.569-.386-2.885-1.078-4.068-.69-1.25-1.515-2.234-2.526-2.952a9.3 9.3 0 0 0-3.537-1.436c-1.263-.2-3.284-.333-5.944-.333H54v34.799h11.436c4.294-.067 7.007-.133 8.15-.266 1.77-.2 3.285-.718 4.548-1.636 1.197-.851 2.208-2.101 2.912-3.537.692-1.502 1.077-3.085 1.077-4.654 0-2.034-.571-3.736-1.648-5.239-1.144-1.502-2.713-2.553-4.734-3.151zm-14.972-10.558h3.923c3.165 0 5.12.067 5.744.133 1.144.133 2.021.585 2.593 1.25.572.652.825 1.503.825 2.619s-.32 2.035-.944 2.687c-.692.718-1.583 1.116-2.78 1.249-.638.133-2.273.133-4.933.133h-4.428zm13.39 21.568c-.638.718-1.449 1.183-2.46 1.369-.69.133-2.207.2-4.68.2h-6.25v-9.241h5.492c3.032 0 5.053.133 5.997.452.89.332 1.582.851 2.088 1.569.505.784.758 1.635.758 2.686 0 1.25-.32 2.234-.944 2.952zm211.118-4.07-13.722-23.256h-6.569v34.798h6.263v-22.685l13.523 22.685h6.821V724.59h-6.316zM97.482 724.59l-13.085 34.798h7.207l2.78-7.925h13.389l2.912 7.925h7.394l-13.457-34.798zm-1.011 21.036 4.481-12.912 4.681 12.912zm143.941-1.583h16.874v-5.824h-16.874v-7.739h18.137v-5.89h-24.905v34.798h25.53v-5.904h-18.762zm-17.512-3.856c-1.583-.851-4.043-1.702-7.327-2.487-3.284-.851-5.372-1.635-6.197-2.353-.691-.585-1.01-1.316-1.01-2.101 0-.917.319-1.636 1.077-2.167 1.077-.851 2.659-1.25 4.614-1.25s3.351.398 4.295 1.183 1.582 2.035 1.835 3.87l6.821-.333c-.133-3.205-1.263-5.771-3.417-7.672-2.088-1.902-5.239-2.886-9.481-2.886-2.593 0-4.8.399-6.635 1.184-1.769.851-3.165 2.034-4.175 3.537-.944 1.569-1.45 3.204-1.45 4.986 0 2.753 1.077 5.106 3.099 7.008 1.449 1.369 4.042 2.486 7.645 3.404 2.846.784 4.614 1.25 5.439 1.569 1.143.399 1.955.917 2.407 1.502.505.519.758 1.25.758 2.101 0 1.25-.572 2.354-1.702 3.338-1.078.984-2.713 1.436-4.934 1.436-2.021 0-3.67-.519-4.866-1.636-1.264-1.05-2.022-2.752-2.46-5.039l-6.569.651c.439 3.936 1.768 6.875 4.042 8.909s5.558 3.019 9.8 3.019c2.912 0 5.372-.399 7.327-1.25 1.954-.851 3.417-2.168 4.481-3.87 1.077-1.768 1.649-3.603 1.649-5.637 0-2.168-.439-4.003-1.33-5.506-.944-1.502-2.154-2.686-3.723-3.537zm-80.807 7.659-13.776-23.256h-6.568v34.798h6.316v-22.685l13.523 22.685h6.755V724.59h-6.25zm43.096-23.256h-9.108l-13.71 15.464V724.59h-6.755v34.798h6.755v-10.491l5.505-5.824 9.215 16.315h8.79l-13.337-21.235zm573.915 3.87c-1.396-1.503-3.098-2.62-5.053-3.205-1.449-.452-3.603-.651-6.382-.651h-12.38v34.798h12.765c2.46 0 4.482-.266 5.997-.718 1.955-.652 3.537-1.636 4.734-2.819 1.583-1.569 2.779-3.604 3.604-6.09.691-2.101 1.01-4.588 1.01-7.407 0-3.271-.385-6.023-1.077-8.257-.758-2.234-1.835-4.122-3.218-5.638zm-3.404 19.919c-.439 1.569-1.01 2.686-1.768 3.337-.692.718-1.649 1.184-2.713 1.436-.824.266-2.207.333-4.109.333h-5.052v-23.004h3.031c2.779 0 4.614.066 5.558.332 1.264.266 2.341.851 3.165 1.636.825.784 1.45 1.901 1.902 3.337.505 1.436.691 3.537.691 6.223s-.186 4.787-.691 6.356zm28.31-24.388c-2.713 0-5.12.452-7.207 1.37-1.583.651-3.032 1.702-4.362 3.151-1.329 1.37-2.34 3.019-3.098 4.787-1.077 2.354-1.582 5.372-1.582 8.909 0 5.505 1.516 9.893 4.428 13.045 2.965 3.151 6.954 4.72 11.94 4.72 4.987 0 8.843-1.569 11.755-4.787 2.965-3.151 4.428-7.539 4.428-13.177s-1.449-10.093-4.428-13.231c-2.965-3.204-6.954-4.787-11.874-4.787m6.688 26.94c-1.702 2.035-3.922 3.018-6.635 3.018s-4.933-.983-6.702-3.018c-1.702-2.034-2.593-5.039-2.593-8.975s.825-7.008 2.527-8.976 3.976-2.952 6.755-2.952 5.053.984 6.755 2.886c1.648 1.968 2.459 4.986 2.459 8.975s-.824 7.008-2.592 9.042zm55.542-6.888h16.808v-5.824H846.24v-7.739h18.071v-5.89h-24.826v34.798h25.464v-5.904H846.24zm-20.211 3.803-13.776-23.256h-6.582v34.798H812v-22.685l13.523 22.685h6.755V724.59h-6.249zm105.765-23.256h-7.141l-13.084 34.798h7.207l2.779-7.925h13.39l2.912 7.925h7.393zm-8.152 21.036 4.482-12.912 4.68 12.912zM519.89 725.108c-1.263-.332-3.923-.518-8.032-.518h-10.863v34.798h6.755v-13.111h4.428c3.031 0 5.438-.199 7.007-.518 1.197-.266 2.34-.785 3.537-1.636 1.144-.851 2.088-1.968 2.846-3.404.758-1.502 1.143-3.271 1.143-5.438 0-2.753-.691-4.987-1.954-6.755-1.33-1.769-2.912-2.886-4.867-3.404zm-.958 12.978a4.07 4.07 0 0 1-2.154 1.702c-.891.399-2.659.519-5.305.519h-3.723v-9.827h3.284c2.407 0 4.042.067 4.867.2 1.077.266 2.021.718 2.712 1.569s1.077 1.835 1.077 3.151c0 .984-.252 1.902-.758 2.686m389.605-13.496h-6.755v34.798h6.755zm-17.3 15.597c-1.582-.851-4.042-1.702-7.326-2.487-3.285-.851-5.372-1.635-6.197-2.353-.691-.585-1.01-1.316-1.01-2.101 0-.917.385-1.636 1.077-2.167 1.077-.851 2.659-1.25 4.614-1.25s3.351.398 4.295 1.183 1.582 2.035 1.835 3.87l6.821-.333c-.133-3.205-1.263-5.771-3.351-7.672-2.154-1.902-5.305-2.886-9.547-2.886-2.593 0-4.734.399-6.569 1.184-1.835.851-3.218 2.034-4.228 3.537-.944 1.569-1.449 3.204-1.449 4.986 0 2.753 1.077 5.106 3.098 7.008 1.449 1.369 4.042 2.486 7.646 3.404 2.845.784 4.68 1.25 5.438 1.569 1.144.399 1.955.917 2.46 1.502.439.519.691 1.25.691 2.101 0 1.25-.571 2.354-1.702 3.338-1.077.984-2.712 1.436-4.933 1.436-2.021 0-3.67-.519-4.867-1.636-1.263-1.05-2.021-2.752-2.406-5.039l-6.636.651c.439 3.936 1.835 6.875 4.109 8.909s5.492 3.019 9.734 3.019c2.912 0 5.372-.399 7.326-1.25 1.955-.851 3.471-2.168 4.548-3.87 1.011-1.768 1.582-3.603 1.582-5.637 0-2.168-.438-4.003-1.329-5.506-.891-1.502-2.154-2.686-3.724-3.537zm-284.344-15.332h-6.769v34.533H623.7v-5.904h-16.807zm-19.015 16.051c1.449-.718 2.593-1.702 3.417-3.085.891-1.37 1.263-2.885 1.263-4.455 0-1.569-.319-2.885-1.01-4.068-.692-1.25-1.516-2.234-2.593-2.952-1.011-.718-2.207-1.184-3.471-1.436-1.329-.2-3.284-.333-5.943-.333h-13.457v34.799h11.435c4.362-.067 7.074-.133 8.218-.266 1.769-.2 3.284-.718 4.481-1.636 1.263-.851 2.208-2.101 2.912-3.537.758-1.502 1.077-3.085 1.077-4.654 0-2.034-.505-3.736-1.649-5.239-1.077-1.502-2.659-2.553-4.68-3.151zm-14.986-10.558h3.856c3.218 0 5.12.067 5.811.133 1.144.133 1.955.585 2.526 1.25.572.652.891 1.503.891 2.619s-.319 2.035-1.01 2.687c-.638.718-1.583 1.116-2.713 1.249-.638.133-2.274.133-4.933.133h-4.428zm13.337 21.568c-.638.718-1.449 1.183-2.46 1.369-.638.133-2.154.2-4.614.2h-6.25v-9.241h5.439c3.098 0 5.119.133 5.997.452.944.332 1.649.851 2.154 1.569.505.784.758 1.635.758 2.686 0 1.25-.386 2.234-1.011 2.952zm-34.054-8.058c0 2.752-.12 4.72-.319 5.904-.186 1.183-.758 2.167-1.769 3.018-.944.784-2.406 1.183-4.294 1.183-1.889 0-3.418-.399-4.482-1.25-1.077-.917-1.768-2.034-2.087-3.47-.186-.851-.253-2.819-.253-5.771v-18.868h-6.755v18.549c0 3.936.186 6.875.639 8.842.319 1.317.944 2.62 1.901 3.87 1.011 1.183 2.274 2.234 3.923 2.952 1.702.784 4.108 1.183 7.326 1.183 2.66 0 4.801-.332 6.449-1.05 1.649-.718 2.966-1.636 3.923-2.819a9.66 9.66 0 0 0 2.021-4.388c.386-1.702.572-4.654.572-8.843v-18.283h-6.755v19.267zm82.961-19.268h-6.755v34.798h6.755zm59.903 0h-6.821v34.798h6.821zm26.794 23.256L708.11 724.59h-6.569v34.798h6.263v-22.685l13.523 22.685h6.822V724.59h-6.316zm-50.622-23.256h-9.096l-13.642 15.464V724.59h-6.835v34.798h6.835v-10.491l5.491-5.824 9.162 16.315h8.789l-13.337-21.235z"/></svg>