<svg xmlns="http://www.w3.org/2000/svg" width="1000" height="1000" fill="none" viewBox="0 0 1000 1000"><path fill="#121517" fill-rule="evenodd" d="M500.491 47.73c175.702 61.216 327.425 178.358 453.866 330.082-3.986 199.656-82.515 398.627-173.687 533.746-184.336 53.246-374.671 57.231-561.022 0C121.813 756.491 49.283 564.827 46.626 377.812 180.394 220.752 303.514 124.245 500.49 47.73" clip-rule="evenodd"/><path fill="#f5a00e" fill-rule="evenodd" d="M500.491 63.715c170.366 59.224 316.112 172.358 439.231 318.769-3.985 192.992-79.858 385.32-167.708 515.768-178.359 51.254-362.03 55.239-542.381 0C133.79 749.185 64.581 563.499 61.924 383.148 191.023 231.402 309.492 137.574 500.492 63.715" clip-rule="evenodd"/><path fill="#121517" fill-rule="evenodd" d="M500.491 75.028c166.381 57.896 308.784 167.709 427.918 310.798-3.985 187.679-77.866 376-163.724 503.127-173.686 50.589-353.373 53.91-529.074 0-92.5-145.746-160.38-326.761-163.06-503.127 126.441-147.738 241.59-238.91 427.918-310.798z" clip-rule="evenodd"/><path fill="#f5a00e" fill-rule="evenodd" d="M500.491 86.342C662.2 142.909 801.304 249.4 917.095 389.147c-3.985 183.008-75.873 366.037-159.052 489.821-169.037 49.239-344.074 52.582-515.104 0C152.432 736.543 86.544 560.199 83.887 389.147 207.006 244.73 319.476 156.215 500.491 86.342" clip-rule="evenodd"/><path fill="#f5a00e" fill-rule="evenodd" d="M500.491 98.32c157.06 54.574 292.157 159.052 404.627 294.149-3.985 177.694-73.216 355.387-154.403 475.828-164.388 47.246-334.089 51.253-500.47 0C162.395 729.879 98.5 558.827 95.843 391.805 214.977 252.058 324.768 166.2 500.469 98.32z" clip-rule="evenodd"/><path fill="#fff" fill-rule="evenodd" d="M368.051 225.424c5.314 9.321 11.978 13.97 8.657 28.627-3.321 15.963-25.284 27.276-37.261 50.567-6.664 13.306-13.971 27.276-13.971 53.246 0 0-1.328-2.656-15.298-3.321-2.657 14.635 2.657 34.605 15.298 45.918-3.985 4.65-6.664 10.65-13.97 18.642 2.657 9.985 12.642 15.299 20.635 23.955-3.321 6-15.299 11.978-18.642 23.291 14.634-2.656 42.597 13.97 46.582 37.926 1.992 13.97 4.649 30.619 4.649 47.91 0 13.306 1.993 42.597-9.321 48.575 13.306 11.977 11.978 25.948 15.299 39.94 3.321 13.97 9.321 24.619 16.627 28.627 11.978 6.664 30.619 2.656 35.269-13.306 1.328-3.321-1.329-10.65-3.986-13.97-5.999-6-14.634-5.314-17.977 5.999-6.664 4.65-11.313 0-11.313-13.306s3.321-30.619 7.992-35.932c-13.97-8.657-6-49.239-3.321-68.545 3.321-19.306 8.657-36.597 15.299-50.59 11.977-21.962 24.619-31.283 41.268-45.917-15.298-8.657-26.612-31.948-29.291-48.575-6.664 12.642-18.641 35.269-30.619 24.619-9.985-8.656 2.657-36.597 35.269-50.589-18.642-7.328-23.291-26.612-19.971-50.589 1.993-13.306 7.329-25.948 3.986-46.583-2.657-20.634-16.627-38.589-41.933-36.597zm-23.955 218.963c4.649 0 8.657 3.985 8.657 8.656s-3.986 8.657-8.657 8.657c-4.672 0-8.657-3.985-8.657-8.657 0-4.671 3.985-8.656 8.657-8.656m-5.336-34.627c4.65 0 8.657 3.985 8.657 8.657 0 4.671-3.985 8.656-8.657 8.656-4.671 0-8.656-3.985-8.656-8.656s3.985-8.657 8.656-8.657m0-38.59c4.65 0 8.657 3.986 8.657 8.657 0 4.672-3.985 8.657-8.657 8.657-4.671 0-8.656-3.985-8.656-8.657 0-4.671 3.985-8.657 8.656-8.657" clip-rule="evenodd"/><path fill="#121517" fill-rule="evenodd" d="M560.379 371.169c-15.298 7.329-36.597 13.306-58.559 13.306-21.963 0-46.582-9.32-61.217-15.298-1.992-.664-6.664 2.657-4.649 6.664 6.664 13.306 38.589 22.627 64.559 22.627s49.904-3.321 65.224-20.635c2.657-2.656-2.657-7.992-5.313-6.664zm-79.194 54.575c5.314 2.657 13.306 3.321 19.306 3.321s14.635-.664 20.635-2.657c-2.657 27.941-1.993 66.552-19.306 66.552-17.978-.664-17.978-35.933-20.635-67.216m77.866-33.276c-13.306 7.328-36.597 13.306-57.895 13.306s-45.254-6-59.889-13.306c-1.992-.664-6.664 2.657-4.649 6.664 7.993 13.306 38.59 21.963 64.56 21.963s52.582-6.664 63.231-21.963c1.992-2.657-3.321-7.993-5.314-6.664zm-233.597 87.187c-10.649-3.986-21.298-1.993-29.955 2.656-11.313 7.329-22.627 19.306-19.97 38.59 2.657 15.963 10.649 23.955 16.627 28.627-15.298 10.649-32.612-3.321-32.612-22.627 0-23.291 31.948-98.5 31.948-132.44 1.992-18.642-3.985-77.202-18.642-91.836-33.94 43.261-45.253 79.194-47.246 110.477-1.328 30.62-7.993 161.045 45.918 157.06 10.649-.664 17.313-3.985 22.627-7.992-1.329 0-3.321-1.993-3.321-3.321 0-2.657 1.992-3.321 3.321-3.321 2.656 0 3.321.664 3.321 2.656.664 2.657.664 6 1.328 9.985-12.642 15.299-40.604 16.627-54.575 6-15.298-11.977-21.298-30.619-27.94-54.574-6.664-30.62-6.664-75.873-1.993-111.142-33.94 15.299-43.925 67.216-26.611 120.463 9.32 27.276 37.261 81.85 91.171 68.544 6.664-1.328 13.306-6.664 19.306-11.977-1.328-.664-2.657-1.993-2.657-3.321 0-2.657 1.329-3.321 3.321-3.321 1.328 0 1.993 0 2.657 1.328.664 3.321.664 7.329 1.328 11.978-10.649 13.306-29.291 19.306-45.918 17.977-34.604-1.328-56.567-30.619-70.537-57.895-15.298 53.91 31.284 83.179 62.567 83.179 25.284 0 43.261-10.649 52.582-23.291-1.328 0-3.321-1.328-3.321-3.321s1.993-3.321 3.321-3.321c1.993 0 2.657.664 3.321 1.328v-.664c.664 4.649 1.993 7.993 2.657 11.978-7.328 10.649-21.299 19.97-36.597 23.955-29.955 7.328-55.239.664-76.537-19.306-3.321 43.925 57.231 49.239 78.529 45.254 17.978-2.657 27.941-11.978 35.269-24.62-1.993 0-3.321-1.992-3.321-3.321 0-2.656 1.328-3.321 3.321-3.321 1.328 0 1.993 0 2.657.665v-.665c1.328 3.986 2.657 8.657 3.985 12.642-9.321 17.978-28.627 26.612-37.261 27.941-33.941 6.664-44.59 0-67.217-9.321 8.657 47.246 69.209 38.589 83.844 31.283 11.977-6 21.298-15.298 25.947-27.94h-.664c-2.657 0-3.321-1.328-3.321-3.321s1.329-3.321 3.321-3.321c.664 0 1.993 0 2.657.664 6 13.306 14.634 24.62 25.948 31.284 32.612 20.634 71.201 8.656 97.171 9.985-3.985 17.313 12.642 17.313 18.642 13.97 8.657-5.314 8.657-17.313 3.321-23.955-8.657-11.314-35.933-3.321-70.537-9.321-28.627-3.321-55.903-31.284-55.903-73.881 0-17.313-6-57.895-.664-81.186-9.986 7.328-21.299 7.328-27.941 4.649-7.992-3.321-17.313-11.313-17.313-25.283 0-7.993 2.657-11.978 8.656-16.627-1.328 3.321-1.992 6-1.992 9.32 0 14.635 6.664 22.627 21.298 22.627 13.971-.664 24.62-8.656 24.62-22.627-1.329-14.634-13.97-21.298-21.963-24.619z" clip-rule="evenodd"/><path fill="#fff" fill-rule="evenodd" d="M412.641 740.528s19.306-1.329 23.955 9.985c4.649 12.642 13.306 21.962 18.642 27.94-12.642-1.992-25.948-15.298-27.941-21.298-2.657-9.321-15.298-19.306-14.634-16.627zm-41.933 1.992s23.955-4.649 39.254 6c15.298 9.985 16.627 25.948 35.268 33.276-11.313 1.993-20.634.665-33.276-1.328-12.641-1.993-21.298-13.306-24.619-19.97-3.985-7.328-16.627-17.978-16.627-17.978m-83.179 0s31.948-3.321 41.933 4.65c9.32 7.992 17.313 27.276 36.597 34.604-11.978 1.993-27.277.664-37.262-3.321s-17.977-15.298-20.634-19.97c-3.321-4.649-20.634-15.963-20.634-15.963m48.574 0s26.613 0 35.269 11.978c8.657 11.313 17.313 19.97 26.612 27.276-11.977 1.993-7.328 1.329-19.97-.664s-25.284-16.627-26.612-21.299c-2.657-7.992-15.963-19.97-15.299-17.313zm77.202 48.575c-10.649 6.664-21.299 9.321-35.269 9.321s-15.963-2.657-24.619-9.321zm12.642 0c-10.65 9.321-27.941 17.977-45.254 17.977-19.306 0-25.948-7.992-35.933-14.634-1.328-1.328-6.664-4.649-13.306-3.321 9.985 7.328 9.985 15.963 17.978 22.627 10.649 9.321 19.97 9.321 31.283 9.321 31.284-.664 45.254-26.612 53.91-30.619l-8.656-1.329zm73.88-103.149c-10.649 33.276-51.918 42.597-52.582 62.567-.664 23.291 23.955 31.947 52.582 31.947s53.246-6.664 53.246-31.947c.664-22.627-39.254-25.284-53.246-62.567m51.232 103.149H449.902c8.657 15.299 30.619 25.948 50.589 17.313 25.284 9.985 44.59-5.313 50.59-17.313zm-50.568 50.589c-25.948 5.314-65.223-14.634-63.895-49.903 8.657 1.993 15.298 14.635 23.291 18.642 7.992 4.649 17.977 10.649 41.269 6 25.283 5.313 33.276-1.328 41.268-5.314s13.97-18.641 22.627-19.306c.664 35.269-36.597 55.903-64.56 49.904zm87.829-101.156s-19.306-1.329-23.955 9.985c-4.65 12.642-13.307 21.962-18.642 27.94 12.642-1.992 25.948-15.298 27.94-21.298 3.321-9.321 15.299-19.306 14.635-16.627zm42.597 1.992s-23.956-4.649-39.254 6c-15.299 9.985-16.627 25.948-35.269 33.276 11.314 1.993 20.635.665 33.276-1.328s21.299-13.306 24.62-19.97c3.985-7.328 16.627-17.978 16.627-17.978m83.201 0s-31.948-3.321-41.933 4.65c-9.321 7.992-17.313 27.276-36.597 34.604 11.978 1.993 27.276.664 37.261-3.321s17.978-15.298 20.635-19.97c3.321-4.649 20.634-15.963 20.634-15.963m-48.597 0s-26.612 0-35.269 11.978c-8.656 11.313-17.313 19.97-26.611 27.276 11.977 1.993 7.328 1.329 19.97-.664s25.283-16.627 26.612-21.299c2.656-7.992 15.962-19.97 15.298-17.313zm-78.53 48.575c10.65 6.664 19.97 9.985 33.941 9.985 13.97 0 17.977-3.321 27.276-9.985zm-11.313 0c10.649 9.321 27.94 17.977 45.254 17.977s31.947-11.977 38.589-15.298c1.993-.664 6-1.993 10.65-1.328-9.986 7.992-13.971 15.962-19.306 20.634-7.993 7.328-17.978 9.985-29.955 9.985-31.284 0-45.254-26.612-53.911-30.619l8.657-1.329z" clip-rule="evenodd"/><path fill="#ec1e26" fill-rule="evenodd" d="M489.178 205.454c3.321 48.574-49.239 73.216-56.567 104.477-6.664 27.941 0 65.224 67.88 66.552 53.911 1.329 71.202-16.626 69.874-51.253-1.993-32.612-42.597-45.254-36.597-77.201-13.971 5.313-22.627 19.305-19.971 33.276 5.314 23.291 17.978 47.246-12.641 47.91-10.65 0-17.978-10.649-14.635-23.955 3.985-17.313 21.299-41.269 21.299-62.567 0-14.635-4.65-28.627-18.642-37.261zm-10.649 357.38c6-4.649-7.329-25.283-11.314-35.933-5.313 2.657-7.992 3.321-11.977 6.664-5.314 3.986-6 6-9.321 11.314 10.649 9.321 27.276 22.627 32.612 17.977zm21.298-7.992c7.328 0 10.649-23.955 14.634-34.605-5.999-1.328-7.992-2.656-13.97-2.656-5.977 0-8.656.664-14.634 2.656 3.321 13.306 7.328 34.605 13.97 34.605m21.963 7.328c6 3.985 23.955-11.313 33.276-17.313-3.321-4.65-4.65-6.664-9.321-10.649-4.649-3.986-6.664-4.65-12.642-7.329-6 11.978-17.313 30.62-11.313 35.269zm11.977 19.97c1.329 6.664 25.284 6 36.597 7.993 0-6 .665-8.657 0-14.635-.664-6-1.992-7.992-5.313-13.97-12.642 6-33.276 13.306-31.284 20.634zm-4.007 22.627c-3.321 6 15.299 21.298 22.627 29.955 3.985-3.985 6-6 9.321-11.313s3.321-7.329 5.313-13.971c-13.306-3.985-33.94-11.313-37.261-4.649zm-17.291 14.634c-6.664 2.657-1.993 26.612-1.329 37.262 6-.665 8.657 0 13.971-2.657 6-1.993 7.992-3.321 12.642-7.328-7.993-11.314-18.642-29.956-25.284-27.277m-23.291 0c-6.664-2.656-17.978 18.642-25.284 27.277 4.65 3.32 6.664 5.313 11.978 6.664 6 2.656 7.992 2.656 14.634 2.656 1.993-12.641 6-33.94-1.328-36.597m-17.313-13.97c-3.321-6-25.948 2.657-36.597 4.649 1.328 6 1.328 8.657 4.649 13.307 3.321 5.999 4.649 7.328 9.321 11.313 9.985-9.321 26.612-23.291 22.627-29.291zm-4.65-22.627c1.329-7.328-21.962-14.634-31.283-19.97-2.657 5.314-3.985 7.329-4.65 13.306-1.328 6.664-.664 8.657 0 14.635 13.971-.665 35.269-.665 35.933-7.993zm32.612-15.32c-11.313 0-20.634 9.32-20.634 20.634s9.321 21.298 20.634 21.298 21.299-9.321 21.299-21.298c0-11.314-9.321-20.634-21.299-20.634m.664-67.881c-48.574 0-88.514 39.94-88.514 88.515s39.253 88.515 88.514 88.515 88.515-39.254 88.515-88.515-39.94-88.515-88.515-88.515" clip-rule="evenodd"/><path fill="#121517" fill-rule="evenodd" d="M676.171 479.655c10.649-3.985 21.298-1.993 29.955 2.657 11.313 7.328 22.626 19.306 19.97 38.589-2.657 15.963-10.65 23.956-16.627 28.627 15.298 10.649 32.612-3.321 32.612-22.627 0-23.291-31.948-98.5-31.948-132.44-2.657-17.977 3.321-76.537 17.977-91.171 33.941 43.261 45.918 79.194 47.247 110.477 1.328 30.619 7.992 161.045-45.918 157.06-10.649-.665-17.314-3.986-22.627-7.993 1.328 0 3.321-1.992 3.321-3.321 0-2.657-1.993-3.321-3.321-3.321-2.657 0-3.321.664-3.321 2.657-.664 2.657-.664 6-1.328 9.985 12.641 15.299 40.604 16.627 54.574 6 15.299-11.978 21.299-30.619 27.94-54.575 6.665-30.619 6.665-75.873 1.993-111.141 36.597 15.962 45.918 67.88 28.627 121.126-9.321 27.277-37.261 81.851-91.172 68.545-6.664-1.328-13.306-6.664-19.306-11.977 1.329-.665 2.657-1.993 2.657-3.321 0-2.657-1.328-3.321-3.321-3.321-1.328 0-1.992 0-2.657 1.328-.664 3.321-.664 7.328-1.328 11.978 10.649 13.306 29.291 19.305 45.918 17.977 34.604-1.328 56.567-30.619 70.537-57.895 15.963 55.238-30.619 84.529-61.903 84.529-25.283 0-43.261-10.649-52.582-23.291 1.329 0 3.321-1.328 3.321-3.321 0-1.992-1.992-3.321-3.321-3.321-1.992 0-2.656.664-3.321 1.329v-.665c-.664 4.65-1.992 7.993-2.656 11.978 7.328 10.649 21.298 19.97 36.597 23.955 29.955 7.329 55.239.664 76.537-19.306 3.321 43.926-57.231 49.239-78.53 45.254-17.977-2.657-27.94-11.978-35.268-24.619 1.992 0 3.32-1.993 3.32-3.321 0-2.657-1.328-3.321-3.32-3.321-1.329 0-1.993 0-2.657.664v-.664c-1.329 3.985-2.657 8.656-3.985 12.642 9.32 17.977 28.626 26.612 37.261 27.94 33.94 6.664 44.589 0 67.216-9.321-8.656 47.246-69.209 38.59-83.843 31.284-11.978-6-21.299-15.299-25.948-27.941h.664c2.657 0 3.321-1.328 3.321-3.321 0-1.992-1.328-3.321-3.321-3.321-.664 0-1.992 0-2.657.664-5.999 13.306-14.634 24.62-25.947 31.284-32.612 20.634-71.202 8.657-97.172 9.985 3.985 17.313-12.642 17.313-18.642 13.97-8.656-5.313-8.656-17.313-3.321-23.955 8.657-11.313 35.933-3.321 70.538-9.321 28.627-3.321 55.903-31.283 55.903-73.88 0-17.314 6-57.896.664-81.187 9.985 7.328 21.298 7.328 27.94 4.65 7.993-3.321 17.314-11.314 17.314-25.284 0-7.993-3.321-11.978-8.657-16.627 1.328 3.321 1.993 6 1.993 9.321 0 14.634-6.664 22.627-21.299 22.627-13.97-.665-24.619-8.657-24.619-22.627-.664-17.314 11.313-23.955 19.97-27.276z" clip-rule="evenodd"/><path fill="#fff" fill-rule="evenodd" d="M632.909 225.423c-5.313 9.321-11.977 13.97-8.656 28.627 3.321 15.963 25.283 27.276 37.261 50.567 6.664 13.306 13.97 27.276 13.97 53.246 0 0 1.328-2.657 15.299-3.321 2.656 14.635-2.657 34.605-15.299 45.918 3.985 4.649 6.664 10.649 13.97 18.642-2.656 9.985-12.642 15.298-20.634 23.955 3.321 6 15.299 11.978 18.642 23.291-14.635-2.657-42.597 13.97-46.582 37.925-1.993 13.971-4.65 30.62-4.65 47.911 0 13.306-1.992 42.597 9.321 48.575-13.306 11.977-11.978 25.947-15.299 39.94-3.321 14.634-8.656 25.283-16.626 29.291-11.978 6.664-30.62 2.656-35.269-13.306-1.329-3.321 1.328-10.65 3.985-13.97 6-6 14.634-5.314 17.978 5.999 6.664 4.65 11.313 0 11.313-13.306s-3.321-30.619-7.992-35.932c13.97-8.657 5.999-49.239 3.321-68.545-3.321-19.306-8.657-36.597-15.299-50.59-11.978-21.962-24.619-31.283-41.269-45.918 15.299-8.656 26.612-31.947 29.291-48.574 6.664 12.642 18.642 35.269 30.62 24.619 9.985-8.656-2.657-36.597-35.269-50.589 18.642-7.328 23.291-26.612 19.97-50.567-1.993-13.306-7.328-25.948-3.985-46.582 2.657-21.299 16.627-39.254 41.933-37.262zm23.978 218.962c-4.65 0-8.657 3.986-8.657 8.657 0 4.672 3.985 8.657 8.657 8.657 4.671 0 8.656-3.985 8.656-8.657 0-4.671-3.985-8.657-8.656-8.657m5.313-34.626c-4.649 0-8.656 3.985-8.656 8.656s3.985 8.657 8.656 8.657 8.657-3.985 8.657-8.657c0-4.649-3.985-8.656-8.657-8.656m-.664-38.59c-4.649 0-8.657 3.985-8.657 8.657 0 4.671 3.985 8.656 8.657 8.656 4.671 0 8.657-3.985 8.657-8.656s-3.321-8.657-8.657-8.657" clip-rule="evenodd"/></svg>