<svg xmlns="http://www.w3.org/2000/svg" width="400" height="400"><path fill="#297bbf" d="M200.12-.004c98.148 27.393 143.92 61.458 196.44 142.72 4.258 101.77-13.91 155.84-75.013 230.86-95.522 35.555-152.58 34.916-242.78 0-63.303-79.838-80.335-134.27-75.013-230.86 56.348-84.877 102.9-117.95 196.37-142.72z"/><path fill="none" stroke="#000" stroke-width=".16" d="m63.209 162.23-4.329 6.316-8.587 12.916-5.677 16.536-3.052 7.026.568 11.639 4.755 7.948 1.703 9.297 2.27 6.53 5.181 9.509-.425 4.897 1.135 5.18 4.045 7.24 3.762 4.754 1.135 5.678"/><path d="M200.12 353.63c5.961-.426 10.645-2.413 16.181-4.471 8.374-3.193 15.471-6.6 30.374-2.839 4.045.994 8.87 2.839 13.484 4.826 9.652 4.116 20.794 8.02 33.213 6.955l1.065-4.4c-5.323-4.187-7.31-10.148-8.942-17.6a232 232 0 0 0-1.349-5.961l-.426-1.562-1.56-.142c-9.156-.71-15.685-2.98-23.846-5.89-3.477-1.277-7.239-2.626-11.639-3.974-11.994-3.69-22.922-.923-33.07 1.632-5.394 1.348-8.304 2.626-13.059 2.839h-.638c-4.826-.142-7.736-1.42-13.058-2.839-10.148-2.555-21.148-5.323-33.071-1.632-4.4 1.348-8.162 2.697-11.64 3.974-8.16 2.91-14.69 5.18-23.844 5.89l-1.562.142-.426 1.562c-.567 2.058-.922 3.974-1.419 5.96-1.632 7.452-3.335 13.84-8.658 18.027l.852 3.335c12.419 1.065 22.922-2.341 32.574-6.529 4.613-1.987 9.154-3.832 13.27-4.825 14.904-3.762 22.71-.071 31.156 3.122 5.535 2.058 10.29 4.045 16.252 4.471zm0-33.213c-8.161-2.2-16.394-6.103-23.632-11.426-1.49-1.135-2.98-2.271-4.4-3.548-.568-.497-1.064-.994-1.632-1.49-9.368 3.832-22.922 8.16-36.761 10.644-11.568 2.058-23.348 2.768-33.284.71-10.29-2.058-18.522-7.097-22.355-16.606-.639-1.632-1.207-3.406-1.561-5.252-7.949-5.251-11.852-11.639-13.13-16.748a17 17 0 0 1-.496-3.051 6.3 6.3 0 0 1 0-1.632c-5.465-5.394-8.73-11-9.226-16.252-.071-1.136-.071-2.2.142-3.336.142-.639.213-1.277.426-1.845h.07c-2.767-3.265-4.896-6.53-6.386-10.361-1.562-3.974-2.271-8.445-2.058-13.91-9.723-8.942-8.516-22.922-2.555-34.703 6.955-13.84 16.252-26.968 20.297-38.606 2.27-6.458 4.045-2.413 4.045-.426 0 9.652-1.561 20.013-3.548 29.31-.213.994-.426 1.987-1.065 5.18-.993 4.755-.993 9.226.355 12.49a9.4 9.4 0 0 0 2.342 3.336c.993.852 2.342 1.49 3.974 1.845 3.761.781 9.084-.07 16.252-3.051 17.529-7.38 34.49-13.84 46.555-14.69 13.484-.923 21.361 4.47 18.735 21.645-.355 2.342-.78 4.755-1.135 6.955-.994 5.748-1.49 9.012-1.136 12.064.284 2.341.923 4.967 2.555 7.664 1.348 2.271 3.477 4.542 6.742 6.813.142-.426.355-.923.497-1.348-.923-9.794 0-19.516 4.116-28.671.78-1.633 1.561-3.265 2.555-4.826l-18.877-91.903c-1.278-6.316-2.768-10.29-5.252-12.135-3.335-2.484-8.8-1.774-12.632-1.136-3.265.568-3.265-1.348-.923-2.697 3.549-1.987 7.807-4.825 11.64-7.38 6.954-4.613 13.91-8.73 21.644-2.839.994-6.6 6.175-10.077 11.142-13.484 1.42-1.064 4.968-3.051 6.813-5.82 1.774-2.554 3.833-3.477 4.187-.496.071.78.355 2.413.639 4.116 3.548-3.832 8.87-6.032 12.348-9.722 1.987-2.13 2.058-4.117 3.903-4.188 1.845.071 1.916 2.059 3.903 4.188 3.478 3.69 8.8 5.89 12.348 9.722.284-1.703.568-3.335.64-4.116.354-2.98 2.412-2.129 4.186.497 1.916 2.697 5.394 4.755 6.813 5.82 4.897 3.406 10.078 6.883 11.071 13.483 7.735-5.89 14.761-1.774 21.645 2.839 3.832 2.555 8.161 5.393 11.639 7.38 2.271 1.278 2.271 3.194-.993 2.697-3.762-.638-9.297-1.348-12.632 1.136-2.484 1.916-3.975 5.82-5.252 12.135l-18.877 91.903a44 44 0 0 1 2.484 4.826c4.116 9.154 5.11 18.948 4.116 28.67.213.426.355.923.497 1.349 3.264-2.271 5.393-4.542 6.742-6.813 1.632-2.697 2.27-5.323 2.554-7.664.355-3.123-.142-6.317-1.135-12.064-.355-2.13-.78-4.613-1.136-6.955-2.625-17.103 5.252-22.568 18.735-21.645 12.136.78 29.026 7.31 46.626 14.69 7.168 3.051 12.49 3.832 16.252 3.051 1.633-.354 2.91-.922 3.975-1.845 1.064-.851 1.845-1.987 2.342-3.335 1.348-3.265 1.348-7.736.425-12.49a326 326 0 0 0-1.064-5.18c-1.916-9.298-3.478-19.659-3.478-29.31 0-1.988 1.775-6.033 4.046.425 4.045 11.639 13.342 24.768 20.297 38.606 5.96 11.852 7.167 25.832-2.555 34.703.213 5.464-.497 9.935-2.058 13.91-1.42 3.832-3.62 7.097-6.317 10.36a7.8 7.8 0 0 1 .426 1.846c.213 1.136.213 2.271.142 3.336-.426 5.251-3.761 10.787-9.226 16.252v1.632a17 17 0 0 1-.496 3.051c-1.278 5.11-5.181 11.497-13.13 16.748-.354 1.846-.922 3.62-1.56 5.252-3.833 9.51-12.065 14.477-22.356 16.606-9.935 2.058-21.716 1.277-33.284-.71-13.839-2.413-27.322-6.813-36.76-10.645-.568.497-1.065.994-1.633 1.49a96 96 0 0 1-4.4 3.549c-7.238 5.323-15.542 9.226-23.632 11.426z"/><g fill="#fff"><g stroke-width=".071"><path d="M195.12 174.58c1.774 2.271 3.62 4.613 5.039 7.452 1.348-2.84 3.193-5.181 4.967-7.452 2.768-3.548 5.465-6.884 5.607-11.994.142-5.252-2.98-9.51-6.032-13.839-1.633-2.342-3.265-4.613-4.542-7.097-1.278 2.484-2.91 4.826-4.542 7.097-3.052 4.329-6.174 8.587-6.032 13.839.07 5.11 2.767 8.445 5.606 11.994zM78.725 289.83c4.33 1.845 8.303 2.839 12.278 3.265 3.62.425 7.31.354 11.284.212 2.768-.142 3.052 4.33-.071 4.471-4.045.213-7.806.213-11.71-.213a41.2 41.2 0 0 1-8.871-1.845c.142.568.355 1.065.568 1.562 3.193 7.877 10.29 12.135 19.16 13.91 9.298 1.916 20.51 1.206 31.653-.781 11.568-2.058 22.922-5.465 31.722-8.729-13.13-2.413-23.277-6.884-30.303-13.768-7.949-7.736-11.71-18.31-10.93-32.219.498-9.084 3.265-18.381 5.82-27.039 1.774-6.032 3.478-11.781 4.187-16.748 1.349-9.226-.993-16.11-13.484-17.955-9.58 2.626-20.722 7.026-32.219 11.852-8.09 3.406-14.265 4.258-18.877 3.335-2.413-.496-4.329-1.419-5.961-2.767-1.561-1.349-2.768-3.052-3.62-4.968-1.703-4.116-1.774-9.51-.638-15.116.07-.355.568-2.768 1.064-5.18 1.065-5.252 2.13-10.078 2.91-15.259-2.058 4.046-4.4 8.09-6.742 12.135-7.239 12.703-14.548 25.406-12.064 36.122 3.123 13.484 18.948 16.535 30.516 18.24 4.968.71 4.4 5.18-1.064 4.258-6.388-.994-13.768-2.626-19.587-5.181a53 53 0 0 1-3.478-1.774c.142 3.406.78 6.316 1.774 8.942 4.968 12.845 14.69 14.335 27.04 15.542 5.748.567 5.535 4.967-.285 4.47-6.245-.567-13.058-1.703-18.239-3.832a27 27 0 0 1-2.483-1.206c-1.207 6.884 4.258 13.342 10.787 16.535 6.741 3.265 14.69 3.194 19.942 2.768 3.974-.284 3.974 4.47.07 4.47-4.187 0-8.8-.07-13.2-.638-2.98-.426-5.819-1.064-8.374-2.058.071.355.142.639.213.994 1.065 4.187 4.33 9.438 11 13.98zm107.795-97.65c-9.723 6.458-15.826 13.839-19.374 21.716-2.697 6.032-3.903 12.419-4.045 18.948 2.484-3.761 5.464-7.168 8.516-10.574 6.67-7.593 13.484-15.329 14.69-27.252.071-.923.142-1.845.213-2.839zm11 145.62v-13.2c-4.542-.426-7.026-1.632-11.923-2.839-9.58-2.413-19.871-5.038-30.658-1.703-4.329 1.349-8.09 2.626-11.497 3.903-8.02 2.839-14.548 5.18-23.348 6.033-.284 1.348-.639 2.767-.923 4.187-.71 3.051-1.348 6.245-2.342 9.225 7.31-.142 13.982-3.264 20.51-6.245 4.188-1.916 8.304-3.832 12.49-4.967 16.82-4.471 28.175-.71 38.749 2.767 3.832 1.278 5.393 2.058 9.012 2.839zm124.1-47.97c-4.329 1.845-8.303 2.839-12.277 3.265-3.62.425-7.31.354-11.284.212-2.768-.142-3.052 4.33.071 4.471 4.045.213 7.807.213 11.71-.213 2.91-.283 5.82-.851 8.87-1.845-.141.568-.354 1.065-.567 1.562-3.193 7.877-10.29 12.135-19.16 13.91-9.298 1.916-20.51 1.206-31.58-.781-11.569-2.058-22.923-5.465-31.723-8.729 13.13-2.413 23.277-6.884 30.303-13.768 7.949-7.736 11.71-18.31 10.93-32.219-.498-9.084-3.265-18.381-5.82-27.039-1.774-6.032-3.478-11.781-4.187-16.748-1.278-9.226.993-16.11 13.484-17.955 9.58 2.626 20.722 7.026 32.219 11.852 8.09 3.406 14.264 4.258 18.877 3.335 2.413-.496 4.329-1.419 5.96-2.767 1.562-1.349 2.769-3.052 3.62-4.968 1.704-4.116 1.774-9.51.639-15.116-.071-.355-.568-2.768-1.064-5.18-1.136-5.252-2.13-10.078-2.91-15.259 2.058 4.046 4.4 8.09 6.67 12.135 7.31 12.703 14.549 25.406 12.065 36.122-3.123 13.484-18.948 16.535-30.516 18.24-4.968.71-4.4 5.18 1.064 4.258 6.387-.994 13.768-2.626 19.587-5.181 1.207-.568 2.342-1.136 3.407-1.774-.142 3.406-.781 6.316-1.774 8.942-4.968 12.845-14.69 14.335-27.11 15.542-5.749.567-5.465 4.967.283 4.47 6.175-.567 13.058-1.703 18.24-3.832.85-.354 1.703-.78 2.483-1.206 1.207 6.884-4.258 13.342-10.858 16.535-6.742 3.265-14.69 3.194-19.942 2.768-3.903-.284-3.974 4.47-.07 4.47 4.257 0 8.87-.07 13.2-.638 2.98-.426 5.819-1.064 8.373-2.058-.07.355-.142.639-.213.994-1.064 4.187-4.329 9.438-11 13.98zm-107.8-97.65c9.723 6.458 15.826 13.839 19.374 21.716 2.768 6.032 3.974 12.419 4.045 18.948-2.484-3.761-5.464-7.168-8.516-10.574-6.671-7.593-13.484-15.329-14.69-27.252-.071-.923-.142-1.845-.213-2.839zm70.3 135.19c-.071-.142 0 0 0 0m-81.5 10.43v-13.2c4.613-.426 7.026-1.632 11.923-2.839 9.58-2.413 19.942-5.038 30.658-1.703a237 237 0 0 1 11.497 3.903c8.02 2.839 14.548 5.18 23.348 6.033.284 1.348.639 2.767.923 4.187.638 3.051 1.348 6.245 2.27 9.225-7.31-.142-13.98-3.264-20.438-6.245-4.188-1.916-8.304-3.832-12.561-4.967-16.82-4.471-28.175-.71-38.749 2.767-3.832 1.278-5.393 2.058-9.012 2.839z"/><path d="M200.12 342.77c4.684-.355 7.665-1.774 12.916-3.548 10.006-3.265 20.722-6.813 36.264-2.697 3.832.993 7.736 2.838 11.781 4.684 2.484 1.135 5.11 2.341 7.735 3.406 5.04 1.987 10.361 3.477 16.252 3.265a22.3 22.3 0 0 0 2.626 4.541c-9.367-.425-17.884-4.045-25.69-7.451-4.755-2.058-9.297-3.974-13.768-5.11-16.252-4.045-24.413-.993-33.497 2.413-5.89 2.2-9.438 3.548-14.619 4.045-5.18-.426-8.8-1.845-14.619-4.045-9.084-3.406-17.245-6.458-33.497-2.413-4.47 1.136-8.942 3.052-13.697 5.11-7.806 3.335-16.322 7.026-25.69 7.451a31.6 31.6 0 0 0 2.626-4.541c5.89.212 11.213-1.207 16.322-3.265q3.938-1.596 7.665-3.406c3.974-1.846 7.948-3.69 11.78-4.684 15.543-4.116 26.259-.568 36.194 2.697 5.322 1.774 8.303 3.193 12.987 3.548z"/></g><path stroke="#000" stroke-width="4.449" d="M200.12 350.86c5.961-.426 10.645-2.413 16.181-4.471 8.374-3.193 15.968-5.961 30.871-2.271 4.116 1.065 8.445 2.91 13.058 4.897 9.652 4.116 20.297 8.729 32.716 7.735l1.206-3.974c-5.322-4.187-7.025-12.064-8.658-19.516a176 176 0 0 0-1.348-5.89l-.426-1.562-1.561-.141c-9.155-.71-15.4-3.478-23.49-6.317-3.477-1.206-6.245-2.98-10.645-4.329-11.993-3.76-24.271-.141-34.419 2.413-5.394 1.349-9.794 4.968-14.548 5.11h-.639c-4.755-.142-6.174-3.69-11.497-5.11-10.148-2.554-21.148-5.322-33.07-1.632-4.4 1.349-9.227 4.258-12.704 5.465-8.09 2.91-14.477 4.754-22.78 4.4l-1.562.142-.426 1.56c-.568 2.059-.922 3.975-1.42 5.891-1.631 7.452-3.406 15.33-8.657 19.516l1.206 3.974c12.42 1.065 23.135-3.548 32.716-7.735 4.613-1.987 9.013-3.832 13.058-4.897 14.903-3.761 22.426-.922 30.871 2.271 5.536 2.058 10.29 4.045 16.252 4.471z"/><g stroke-width=".071"><path d="M200.12 283.09c-1.135 0-1.348 1.845-1.916 3.548-.497 1.562-1.136 2.91-1.987 4.33-.426.78-.852 1.49-1.207 2.27-3.406 7.594.284 12.703 5.039 17.6 4.968-5.18 8.445-10.077 5.039-17.6-.355-.78-.78-1.49-1.136-2.27a34 34 0 0 1-1.987-4.33c-.568-1.703-.78-3.548-1.916-3.548z"/><path d="M209.12 178.34c-.142.142-.284.355-.426.568-2.413 3.051-4.897 6.245-5.961 10.716-1.136 4.967-3.974 5.393-5.039.213-.851-4.046-2.98-7.026-5.11-9.865v.142l-1.277-1.703c0 5.464-.07 12.348-.497 17.103-1.419 13.27-8.658 21.645-15.826 29.735-5.606 6.387-11.07 12.632-12.987 20.935l-.71 2.98-2.625-1.56c-5.394-3.123-8.73-6.53-10.716-9.865-2.058-3.407-2.839-6.6-3.194-9.439-.426-3.69.142-7.097 1.136-13.342.284-1.774.638-3.832 1.064-6.884 1.987-13.058-3.903-17.174-14.052-16.535a38 38 0 0 0-3.761.426c8.445 3.903 10.006 11.284 8.658 20.581-.71 5.323-2.484 11.213-4.329 17.458-2.484 8.374-5.11 17.387-5.606 25.974-.71 12.561 2.625 22 9.58 28.813 7.097 6.955 18.026 11.213 32.432 13.271l1.278.639a60 60 0 0 0 3.76 3.619c1.35 1.135 2.698 2.271 4.117 3.335 4.755 3.549 14.619 10.858 20.368 10.716 6.032-.07 21.645-10.716 21.645-10.716s2.839-2.129 4.116-3.335a46 46 0 0 0 3.832-3.62l1.278-.638c14.406-2.058 25.335-6.316 32.432-13.271 6.955-6.813 10.29-16.252 9.58-28.813-.496-8.658-3.122-17.6-5.606-25.974-1.845-6.245-3.548-12.135-4.329-17.458-1.348-9.297.213-16.677 8.658-20.581a36 36 0 0 0-3.761-.426c-10.148-.71-16.04 3.478-14.052 16.535.497 2.98.78 5.039 1.135 6.884 1.065 6.174 1.633 9.652 1.136 13.342-.355 2.839-1.136 6.032-3.194 9.439-2.058 3.335-5.322 6.742-10.716 9.864l-2.626 1.561-.71-2.98c-1.915-8.303-7.38-14.548-12.986-20.935-7.097-8.09-14.406-16.464-15.826-29.735-.497-4.755-.568-11.71-.497-17.174z"/><path d="M186.72 172.02c-.923-2.129-1.561-4.471-1.632-7.31-.142-6.741 3.335-11.639 6.884-16.535 3.193-4.4 5.748-7.238 6.741-13.626.497-3.193 2.271-2.696 2.697.071 1.065 5.962 3.69 9.013 6.955 13.555 3.477 4.897 7.026 9.794 6.884 16.535-.071 2.84-.71 5.252-1.632 7.31 0 4.684-.071 10.787 0 15.258 7.593 4.613 13.342 9.794 17.67 15.329l.072-.426 17.955-87.219c1.56-7.451 3.335-12.135 6.954-14.832 1.42-1.064 2.981-1.703 4.897-2.058-.497-.355-1.064-.71-1.561-1.064-5.678-3.833-11.355-7.594-17.387-3.833-2.2 1.42-3.265 2.484-3.69 4.968l-8.8 48.755c-.781 3.69-5.252 2.98-4.33-1.206l8.517-47.193c.567-2.98 1.42-6.245.567-9.155-1.277-4.33-5.393-7.168-9.154-9.794-1.704-1.206-3.336-2.341-4.684-3.548-.142 1.136-.355 2.2-.497 3.123l-5.535 56.135c-.426 3.477-4.826 3.051-4.4-.994l4.683-47.76c.497-4.827.71-7.098-2.91-10.575-1.49-1.42-3.335-2.839-5.038-4.187-1.774-1.348-3.548-2.484-4.968-3.903-.71-.71-1.348-1.49-1.845-2.271a11.2 11.2 0 0 1-1.916 2.27c-1.42 1.35-3.194 2.556-4.968 3.904-1.703 1.348-3.477 2.697-5.038 4.187-3.62 3.406-3.336 5.748-2.91 10.574l4.684 47.761c.426 4.045-3.974 4.4-4.4.994l-5.536-56.135c-.142-.923-.284-1.987-.496-3.123-1.42 1.207-3.052 2.342-4.755 3.548-3.69 2.555-7.807 5.394-9.084 9.794-.852 2.98 0 6.245.497 9.155l8.516 47.193c.922 4.187-3.478 4.897-4.33 1.206l-8.8-48.755c-.425-2.484-1.49-3.548-3.69-4.968-5.96-3.832-11.638 0-17.315 3.833-.497.354-1.065.71-1.562 1.064a12.6 12.6 0 0 1 4.897 2.058c3.548 2.626 5.394 7.38 6.955 14.832l17.884 87.22.07.425c4.259-5.535 10.007-10.716 17.6-15.329.072-4.471 0-10.574.072-15.258z"/></g></g><path d="M288.804 345.186c.284.78.639 1.49 1.065 2.27-9.013 2.059-19.162-1.844-28.388-6.031-6.954-3.123-13.91-6.246-20.51-6.53-7.522-.354-14.548.355-21.432 1.988-6.883 1.632-13.554 4.258-20.51 7.735-.07.071-.07.071-.141.071h-.355s-.071 0-.071-.07c0 0-.071 0-.071-.072-6.884-3.477-13.626-6.103-20.51-7.735s-13.91-2.342-21.432-1.988c-6.671.284-12.987 3.478-19.161 6.53-8.162 4.045-17.032 7.593-26.045 5.535l1.064-2.271c8.09 1.845 16.11-1.632 23.916-5.535 6.458-3.194 13.058-6.459 20.155-6.813 7.736-.355 14.974.354 22.142 2.058 6.884 1.632 13.626 4.258 20.58 7.664 6.884-3.477 13.697-6.032 20.581-7.664 7.097-1.703 14.336-2.413 22.142-2.058 7.026.354 14.194 3.548 21.361 6.812 8.871 3.975 18.097 7.878 26.33 6.033zm-5.323-20.157c.284.78.639 1.49 1.065 2.27-9.013 1.491-13.768-2.341-23.064-6.244-6.955-3.123-13.91-6.246-20.51-6.53-7.523-.354-14.549.355-21.433 1.988s-13.554 4.258-20.51 7.735c-.07.071-.07.071-.141.071l-.142.142h-.284s-.071 0-.071-.07c0 0-.071 0-.071-.072-6.884-3.477-13.626-6.103-20.51-7.735-25.62-6.175-43.432 14.903-61.245 10.858l1.064-2.271c16.464 3.76 35.413-17.103 60.748-11 6.884 1.632 13.626 4.258 20.581 7.664 6.884-3.406 13.697-6.032 20.581-7.664 7.097-1.704 14.335-2.413 22.142-2.058 7.026.354 14.194 3.548 21.361 6.813 8.871 3.69 12.774 7.167 20.935 6.245z"/><path d="M196.98 323.12h2.484v19.232h-2.484zM68.675 135.97c-7.877-3.761-11.781-5.606-19.658-9.368-1.49 3.123-2.2 4.755-3.548 8.02-1.633-.71-2.484-.994-4.117-1.704 3.69-8.942 5.82-13.2 10.432-21.219 1.562.923 2.271 1.349 3.833 2.2-1.704 2.91-2.484 4.4-4.045 7.452 7.735 3.974 11.568 6.032 19.303 10.006-.923 1.774-1.349 2.697-2.271 4.613zm-14.97-27.46c1.206-1.987 1.845-2.98 3.052-4.897 4.755 3.123 7.096 4.684 11.852 7.807 1.845 1.277 3.122 1.987 3.76 2.27.994.426 1.988.426 2.982.143.993-.284 1.845-1.065 2.696-2.2.78-1.136 1.207-2.2 1.136-3.123s-.426-1.774-1.065-2.413-1.774-1.632-3.406-2.839c-4.613-3.477-6.955-5.251-11.568-8.729 1.348-1.845 2.058-2.696 3.406-4.47 4.258 3.477 6.458 5.18 10.716 8.657 2.413 1.987 4.116 3.478 4.968 4.542a8.3 8.3 0 0 1 1.703 3.194c.284 1.135.284 2.27 0 3.548s-.993 2.626-2.058 4.187c-1.348 1.845-2.484 3.194-3.62 3.903-1.135.71-2.27 1.136-3.406 1.207-1.135.142-2.2 0-3.193-.355-1.42-.497-3.407-1.49-5.89-3.052-4.755-2.91-7.168-4.4-11.924-7.31zm39.92-9.944a3015 3015 0 0 0-15.968-14.832 210 210 0 0 0-5.252 5.961c-1.348-1.135-2.058-1.703-3.406-2.838 5.677-6.742 8.658-9.936 14.974-15.755 1.206 1.277 1.774 1.987 2.98 3.264-2.27 2.13-3.406 3.194-5.606 5.465 6.174 6.174 9.297 9.225 15.471 15.329-1.277 1.348-1.987 1.987-3.193 3.406m19.695-17.74c-8.02-7.097-12.136-10.574-20.723-17.103 1.703-1.42 2.555-2.058 4.329-3.406 5.606 4.825 8.374 7.238 13.768 12.277-2.768-6.884-4.116-10.361-6.53-17.387 2.13-1.42 3.194-2.13 5.323-3.407 5.465 5.252 8.09 7.949 13.271 13.413-2.483-7.026-3.619-10.574-5.819-17.813 1.845-1.064 2.839-1.561 4.684-2.484 2.626 10.503 4.045 15.613 7.38 25.832-1.632.923-2.483 1.42-4.116 2.413-5.606-5.748-8.516-8.587-14.477-14.052 2.626 7.665 3.975 11.426 7.026 18.948a82 82 0 0 0-3.974 2.91zm10.6-37.19c1.916-.923 2.839-1.348 4.755-2.271 2.413 5.18 3.62 7.736 5.961 12.916.923 2.058 1.632 3.336 1.987 3.903.639.923 1.42 1.49 2.342 1.774s1.987.213 3.194-.283c1.206-.497 1.987-1.136 2.342-1.988.354-.78.496-1.632.283-2.554-.212-.852-.71-2.271-1.419-4.258l-5.322-13.484c1.987-.781 2.91-1.136 4.896-1.846 1.845 5.181 2.768 7.807 4.684 12.987q1.597 4.471 1.916 6.388c.32 1.917.142 2.483-.142 3.548s-.851 2.058-1.703 2.91-2.058 1.632-3.62 2.342c-1.915.78-3.548 1.206-4.754 1.135s-2.342-.355-3.335-.923c-.994-.567-1.775-1.206-2.413-2.058q-1.384-1.809-3.407-5.748c-2.484-5.039-3.761-7.523-6.245-12.49m32.5 15.19c-3.264-10.006-4.826-14.974-8.09-24.91 4.187-1.348 6.316-1.916 10.574-2.98 2.697-.64 4.684-.852 6.032-.64s2.484.852 3.406 1.846c.994 1.064 1.562 2.342 1.916 3.832q.532 2.874-.638 5.11c-.78 1.49-4.116 3.335-4.116 3.335 0 .071 2.129.994 2.98 1.632s1.987 1.846 3.478 3.62 2.2 2.697 3.619 4.542c-2.058.355-3.122.567-5.18.993a144 144 0 0 0-4.471-4.826c-1.633-1.703-2.768-2.767-3.336-3.122-.568-.426-1.135-.639-1.632-.71-.568-.07-1.349.071-2.413.355a4.6 4.6 0 0 0-.923.284c1.207 4.187 1.845 6.316 3.052 10.503-1.703.497-2.555.71-4.258 1.277zM156.491 43c1.42-.426 2.058-.568 3.477-.923 2.271-.567 3.69-.993 4.187-1.348s.852-.78 1.065-1.42c.213-.567.213-1.277.071-2.057-.213-.852-.568-1.49-1.136-1.916-.567-.426-1.277-.64-2.129-.568-.425 0-1.632.284-3.619.78-1.561.426-2.27.568-3.832 1.065.78 2.555 1.135 3.832 1.845 6.387zm21.329 10.786c-1.703-10.361-2.555-15.471-4.258-25.832 2.058-.355 3.122-.497 5.18-.78 1.42 10.36 2.13 15.541 3.478 25.973-1.774.213-2.626.355-4.4.64m17-1.771c-.497-10.432-.71-15.684-1.277-26.116 2.058-.071 3.122-.142 5.18-.142.071 4.116.142 6.174.213 10.29 3.832-.07 5.748-.07 9.58.142.143-4.116.285-6.174.427-10.29 2.058.071 3.122.142 5.18.284-.71 10.432-1.135 15.684-1.845 26.116-1.774-.142-2.626-.142-4.4-.213.213-4.542.284-6.884.497-11.426-3.762-.142-5.607-.142-9.368-.142.071 4.613.142 6.884.213 11.426-1.774 0-2.626.071-4.4.142zm41.6 3.83a94 94 0 0 0-4.755-.994c-.284-2.483-.426-3.69-.78-6.174-3.62-.638-5.394-.922-9.013-1.42-1.065 2.272-1.562 3.407-2.555 5.678-1.845-.213-2.768-.284-4.684-.497 4.329-10.148 6.813-15.187 12.277-24.98 2.2.283 3.264.496 5.464.851 2.271 11 3.052 16.535 4.046 27.535zm-6.103-11.852c-.568-4.045-.923-6.103-1.633-10.148-1.916 3.62-2.91 5.465-4.683 9.155 2.555.355 3.832.568 6.316.993m8.503 12.422c2.626-10.148 3.974-15.258 6.529-25.406 1.987.497 2.98.78 4.897 1.277 2.129 7.878 2.98 11.852 4.258 19.658 2.342-6.6 3.548-9.935 5.89-16.464 1.845.64 2.768.994 4.542 1.633a2494 2494 0 0 1-9.51 24.413c-1.632-.64-2.483-.923-4.187-1.49-1.064-7.594-1.845-11.427-3.761-19.09-1.845 6.6-2.839 9.864-4.755 16.392-1.561-.425-2.413-.638-3.974-1.064zm31.2-17.25c3.548 1.49 5.323 2.271 8.8 3.974 1.916.923 3.336 1.845 4.187 2.697 1.135 1.136 1.916 2.413 2.271 3.974s.426 3.194.071 4.897-1.135 3.62-2.413 5.748a21.6 21.6 0 0 1-3.406 4.471c-1.49 1.349-2.981 2.342-4.471 2.84-1.136.425-2.413.496-3.833.354q-1.596-.213-3.832-1.277c-3.051-1.49-4.542-2.2-7.664-3.478l10.29-24.129zm2.98 6.103c-2.91 6.316-4.328 9.439-7.309 15.755 1.277.568 1.845.852 3.123 1.42 1.135.567 2.058.922 2.625.993.781.142 1.49.142 2.2-.142.71-.213 1.42-.78 2.271-1.632s1.774-2.2 2.697-3.974c.994-1.774 1.561-3.265 1.774-4.33.213-1.135.213-2.057-.07-2.909s-.781-1.561-1.562-2.2c-.568-.497-1.774-1.206-3.69-2.058-.852-.426-1.278-.568-2.058-.994zm23.22 40.097a150 150 0 0 0-3.903-3.123c.851-2.342 1.206-3.548 1.987-5.96-2.98-2.272-4.542-3.336-7.665-5.394-1.916 1.56-2.91 2.342-4.825 3.974-1.633-1.065-2.413-1.562-4.046-2.484 8.375-7.239 12.845-10.645 22.142-17.032a184 184 0 0 1 4.613 3.264c-2.768 11-4.4 16.393-8.303 26.755m-.497-13.555c1.207-3.903 1.845-5.89 2.91-9.935-3.336 2.413-5.039 3.619-8.303 6.174 2.2 1.49 3.264 2.2 5.393 3.761m4.697 17.105c2.98-3.264 4.4-4.968 7.38-8.232 1.349-6.955 1.917-10.503 2.626-17.671 1.988 1.561 2.981 2.413 4.897 4.045-.78 4.826-1.277 7.168-2.27 11.852 4.541-1.49 6.812-2.129 11.567-3.335 1.774 1.774 2.697 2.696 4.4 4.541-7.167 1.207-10.645 1.987-17.529 3.904-3.051 3.193-4.542 4.825-7.593 8.019-1.349-1.278-1.987-1.916-3.407-3.123zm22.2 25.344c-1.206-1.774-1.845-2.626-3.052-4.258 1.42-2.129 2.058-3.193 3.478-5.323-2.413-3.122-3.62-4.683-6.245-7.593-2.342.993-3.478 1.49-5.749 2.555-1.348-1.49-1.987-2.2-3.406-3.62 10.006-4.754 15.258-6.883 25.903-10.432 1.561 1.775 2.27 2.697 3.761 4.613-5.393 10.077-8.374 14.974-14.76 24.13zm2.839-13.626c2.2-3.548 3.264-5.323 5.251-8.942-3.903 1.349-5.82 2.13-9.651 3.62 1.774 2.057 2.626 3.122 4.329 5.322zm-1.339 15.826c8.658-5.89 13.058-8.8 21.645-14.69 1.277 1.845 1.845 2.839 3.052 4.755-3.407 7.735-5.323 11.497-9.44 18.664 6.175-3.336 9.227-4.968 15.4-8.303 1.065 1.916 1.562 2.91 2.556 4.967l-23.42 11.71c-.922-1.845-1.348-2.767-2.341-4.542 4.116-6.812 6.032-10.36 9.438-17.742-5.748 3.69-8.658 5.465-14.406 9.155-.993-1.561-1.419-2.342-2.483-3.832zm12.1 21.71c9.51-4.329 14.335-6.529 23.845-10.858.994 2.2 1.49 3.335 2.413 5.606-9.652 3.975-14.477 6.033-24.2 10.006a96 96 0 0 0-2.058-4.754m-141.9 142.58c2.058-1.987 9.439-1.845 11.639 0 2.413 1.987 1.845 12.206 1.845 12.206s4.258 5.465 4.116 7.594c-.213 4.045-7.877 11.355-12.136 11.355s-11.922-7.523-12.135-11.64c-.142-2.2 4.258-7.877 4.258-7.877s.213-9.51 2.342-11.639zm.142 12.206s-3.052 4.684-2.91 6.529c.142 3.406 5.394 9.58 8.304 9.58s8.16-5.96 8.303-9.367c.07-1.774-2.839-6.245-2.839-6.245s.426-8.374-1.277-10.006c-1.49-1.561-6.6-1.632-7.949 0-1.49 1.703-1.632 9.58-1.632 9.58z"/><path fill="#fff" d="M209.72 231.07c-3.62-5.748-7.168-12.419-9.652-20.297-3.051 8.09-1.277 16.039.213 22.852 1.703 7.736 3.549 15.613-.497 27.748-1.49 4.471-5.322 1.42-4.187-1.206 6.813-15.897-1.348-30.871-3.406-35.271-1.561 5.606-6.032 11.923-8.445 17.316-3.336 7.451-4.613 17.032.07 23.987.852 1.348 1.988 2.554 3.336 3.69 1.065.852 2.271 1.632 3.62 2.413.78-.568 1.703-.994 2.625-1.42.284-.142.568-.283.852-.354a16.8 16.8 0 0 1 5.677-.994c2.84 0 5.536.71 7.878 1.987.426.213.851.497 1.277.78 8.587-4.541 10.716-12.702 9.723-20.51a37 37 0 0 0-.994-4.896c-.497-1.632-1.064-3.194-1.703-4.613-1.703-3.832-3.974-7.452-6.316-11.142z"/><path fill="#fbd206" d="M202.12 200.41c2.058 14.974 7.026 20.652 11.639 28.529 2.413 3.832 4.684 7.523 6.529 11.639v.071c.71 1.632 1.348 3.406 1.845 5.18s.923 3.62 1.136 5.465c1.277 9.865-1.704 20.155-13.555 25.548l-1.42.639-1.135-.923c-.284-.284-.568-.426-.852-.638s-.567-.355-.922-.568c-1.633-.852-3.549-1.42-5.607-1.42-1.42 0-2.768.284-3.974.71-.213.071-.426.142-.568.213q-1.49.638-2.767 1.703l-1.136.923-1.42-.639h-.07a29.6 29.6 0 0 1-5.89-3.62 18 18 0 0 1-4.117-4.612c-5.535-8.374-4.187-19.445-.425-27.89 3.122-7.026 8.658-12.774 10.148-21.574.496-3.123 1.064-6.387 3.832-1.065.426.781.922 1.775 1.348 3.336-1.42-5.536 2.839-17.387 4.33-21.361 1.348-3.478 2.625-4.542 2.98.426z"/><path fill="none" stroke="#000" stroke-width="5.191" d="M202.12 200.41c2.058 14.974 7.026 20.652 11.639 28.529 2.413 3.832 4.684 7.523 6.529 11.639v.071m-.068-.069c.71 1.632 1.348 3.406 1.845 5.18s.923 3.62 1.136 5.465c1.277 9.865-1.704 20.155-13.555 25.548m.034.007-1.42.639-1.135-.923m-.005-.006c-.284-.284-.568-.426-.852-.639-.283-.213-.567-.355-.922-.567-1.632-.852-3.549-1.42-5.607-1.42-1.419 0-2.767.284-3.974.71-.213.07-.426.142-.568.213q-1.49.638-2.767 1.703m.01 0-1.135.923-1.42-.64h-.07m.005-.003c-2.27-1.064-4.187-2.271-5.89-3.62-1.704-1.348-3.052-2.909-4.187-4.612-5.536-8.374-4.187-19.445-.426-27.89 3.122-7.026 8.658-12.774 10.148-21.574.497-3.123 1.064-6.387 3.832-1.065.426.78.923 1.774 1.42 3.336-1.42-5.536 2.838-17.387 4.328-21.361 1.349-3.478 2.626-4.542 2.981.426"/><path d="M195.02 217.23s6.884 14.194 7.735 21.858c.781 7.097-6.954 21.858-6.954 21.858s3.76-13.768 3.264-21.077c-.426-6.458-6.458-19.445-6.458-19.445l2.413-3.265z"/><g fill="none" stroke="#000" stroke-width=".742"><path d="M200.12 350.86c5.961-.426 10.645-2.413 16.181-4.471 8.374-3.193 15.968-5.961 30.871-2.271 4.116 1.065 8.445 2.91 13.058 4.897 9.652 4.116 20.297 8.729 32.716 7.735m.074 0 1.1-3.97m0 0c-5.322-4.187-7.026-12.064-8.658-19.516a176 176 0 0 0-1.348-5.89m.016.006-.426-1.561-1.632-.142m.048-.007c-9.155-.71-15.4-3.477-23.49-6.316-3.477-1.206-6.245-2.98-10.645-4.33-11.994-3.76-24.271-.141-34.419 2.414-5.394 1.348-9.794 4.967-14.548 5.11m-.048-.068h-.71m-.04 0c-4.755-.142-6.174-3.69-11.497-5.11-10.148-2.554-21.148-5.322-33.071-1.632-4.4 1.349-9.226 4.258-12.703 5.465-8.09 2.91-14.477 4.754-22.781 4.4m-.038.067-1.561.142-.426 1.561m-.023-.003c-.568 2.058-.923 3.974-1.42 5.89-1.632 7.452-3.406 15.33-8.657 19.516m.077.004 1.2 3.97"/><path d="M107.32 356.75c12.419 1.065 23.135-3.548 32.716-7.735 4.613-1.988 9.013-3.833 13.058-4.897 14.903-3.762 22.426-.923 30.871 2.27 5.536 2.059 10.29 4.046 16.252 4.472"/></g></svg>