<svg xmlns="http://www.w3.org/2000/svg" width="1000" height="1000" fill="none" viewBox="0 0 1000 1000"><path fill="#0e69af" d="M913.202 541.388a35.06 35.06 0 0 1 21.66-32.335 35.07 35.07 0 0 1 38.173 7.584 35.06 35.06 0 0 1 7.655 38.159 35.06 35.06 0 0 1-32.294 21.721 35 35 0 0 1-34.997-35.129m61.59 0a26.26 26.26 0 0 0-17.468-22.737 26.265 26.265 0 1 0-9.125 51.037 27 27 0 0 0 19.091-8.62 27 27 0 0 0 7.174-19.68m-40.054-19.698h14.774c9.521 0 14.708 3.283 14.708 11.687a9.91 9.91 0 0 1-6.306 9.984 9.9 9.9 0 0 1-4.134.654l10.637 17.4h-7.551l-10.243-17.138h-4.465v17.138h-7.42zm7.551 16.94h6.567c4.333 0 8.142-.656 8.142-5.909s-4.268-5.45-8.077-5.45h-6.566z"/><path fill="#0db04b" d="M800.196 169.479a123.24 123.24 0 0 0-114.448 81.945c-.919 2.43-4.071 12.542-4.071 12.542l-72.228 312.549h165.796c56.994 0 105.058-41.104 118.847-96.457l71.703-310.645z"/><path fill="#f27226" d="M524.155 79a121.73 121.73 0 0 0-73.353 24.846 121.73 121.73 0 0 0-43.524 64.06 116 116 0 0 0-2.692 11.688L291.779 667h165.927a121.87 121.87 0 0 0 117.797-92.452L690.017 79z"/><path fill="#0e69af" d="M206.419 169.483a123.58 123.58 0 0 0-116.09 87.199 52 52 0 0 0-1.05 3.414l-2.758 10.9L16 576.52h169.735a119.505 119.505 0 0 0 111.231-80.83l6.566-29.088 68.682-297.119z"/><path fill="#fff" d="M175.492 270.996h-2.561a51.8 51.8 0 0 0-33.224 12.541 55.4 55.4 0 0 0-18.648 26.068L83.041 474.744h2.166a52 52 0 0 0 33.488-12.673 53.84 53.84 0 0 0 19.698-30.532l8.339-35.851h75.511a53.4 53.4 0 0 0 33.488-12.739 54.1 54.1 0 0 0 19.698-30.401l.46-2.167H157.107l7.879-34.078h102.761a51.94 51.94 0 0 0 33.225-12.476 55.16 55.16 0 0 0 19.698-30.401l.525-2.167zm419.447 9.977a34.47 34.47 0 0 0-25.279-9.849H424.613l-46.817 203.551h2.167a52 52 0 0 0 33.488-12.672 53.85 53.85 0 0 0 19.698-30.533l8.405-36.245h100.462a47.35 47.35 0 0 0 32.831-9.587 63.3 63.3 0 0 0 20.289-33.29l8.799-37.69c.648-3.045 1-6.146 1.051-9.258a32.83 32.83 0 0 0-10.047-24.427m-45.24 69.339h-97.771l7.88-34.144h97.836zm340.324-69.208a33.9 33.9 0 0 0-25.28-9.849H712.014v1.445a49.5 49.5 0 0 0-1.116 8.93 33.62 33.62 0 0 0 9.455 24.886 34.03 34.03 0 0 0 25.28 9.849h32.043l-36.508 158.376h2.167a52.08 52.08 0 0 0 33.553-12.673 54.17 54.17 0 0 0 19.699-30.533l26.724-115.17h75.511v-1.445a43.4 43.4 0 0 0 1.05-9.258 32.82 32.82 0 0 0-9.849-24.558"/><path fill="#1068b0" d="M180.03 909.349a56.58 56.58 0 0 1-38.305 12.379 81.4 81.4 0 0 1-38.435-8.101l8.296-21.195a60.3 60.3 0 0 0 29.556 7.713 32 32 0 0 0 20.74-6.481 20.28 20.28 0 0 0 7.907-16.917q0-14.519-24.759-25.407a100 100 0 0 1-26.768-16.268 38.51 38.51 0 0 1-12.963-29.491 40.45 40.45 0 0 1 13.482-31.888 51.85 51.85 0 0 1 35.323-11.537 66.2 66.2 0 0 1 34.806 8.166l-7.648 19.445a53.6 53.6 0 0 0-26.315-7.065 28.13 28.13 0 0 0-18.602 5.833 19.44 19.44 0 0 0-7.065 15.815q0 14.128 25.926 25.926a99.9 99.9 0 0 1 25.926 15.814 38.9 38.9 0 0 1 12.963 29.555 42.33 42.33 0 0 1-14.065 33.704m114.657-4.923a49.64 49.64 0 0 1-37.658 17.292 49.64 49.64 0 0 1-37.657-17.292 66.3 66.3 0 0 1-12.962-42.778 66.3 66.3 0 0 1 12.962-42.777 49.978 49.978 0 0 1 75.315 0 66.3 66.3 0 0 1 12.962 42.777 66.3 66.3 0 0 1-12.962 42.778m-17.436-72.916a24.043 24.043 0 0 0-40.573 0 55.55 55.55 0 0 0-6.871 29.879 55.7 55.7 0 0 0 6.871 29.944 23.78 23.78 0 0 0 20.287 11.367 23.78 23.78 0 0 0 20.286-11.367 55.67 55.67 0 0 0 6.871-29.944 55.55 55.55 0 0 0-6.871-29.879m100.396-61.644q-22.88 0-22.88 19.898v14.324h23.981v17.565h-23.722v97.74h-22.879v-97.74H316.98v-17.565h15.167v-14.324a36.55 36.55 0 0 1 11.991-29.296 43.82 43.82 0 0 1 29.684-9.398 66 66 0 0 1 7.324.389v18.407zm68.638 148.493a34.2 34.2 0 0 1-14.519 2.592q-31.694 0-31.694-33.833v-65.462h-15.555v-17.565h15.879v-26.703l22.944-7.065v33.768h23.269v17.565H423.34v64.296c0 9.657 5.121 14.518 15.361 14.518 2.71.043 5.4-.464 7.908-1.491zm137.342 1.036h-24.176l-20.546-73.175a130 130 0 0 1-3.435-16.657h-.389a155 155 0 0 1-3.694 16.657l-20.482 73.175H486.73l-34.481-115.304h23.333l19.833 76.157a122 122 0 0 1 3.241 18.147h.453c1.102-6.481 2.398-12.962 3.824-18.147l20.935-76.157h22.037l21 76.157c1.426 5.379 2.657 11.472 3.824 18.147h.454a114 114 0 0 1 3.175-18.147l20.482-76.157h23.333zm132.546-5.77a88.9 88.9 0 0 1-41.481 8.102q-49.777 0-49.843-36.167a32.02 32.02 0 0 1 21.454-31.175 142.2 142.2 0 0 1 47.638-8.556v-7.324q0-19.444-24.37-19.444a73 73 0 0 0-31.824 7.065l-6.027-16.074a98.9 98.9 0 0 1 40.185-8.102q44.332 0 44.268 38.889zm-22.232-52.24a127.3 127.3 0 0 0-32.407 4.731 19.44 19.44 0 0 0-14.842 19.055q0 19.445 27.157 19.445a49.4 49.4 0 0 0 19.898-2.982zm95.859-39.339a50 50 0 0 0-11.796-1.232 46.5 46.5 0 0 0-18.148 2.982v95.601h-23.333V809.86a115 115 0 0 1 44.722-8.101 73.4 73.4 0 0 1 12.963.842zm111.157 39.147-76.545 10.695q3.63 31.24 35.323 31.24a65.8 65.8 0 0 0 31.824-7.065l6.87 17.565a87.7 87.7 0 0 1-40.249 8.102 54.12 54.12 0 0 1-41.87-16.334 61.7 61.7 0 0 1-14.778-43.814 64.8 64.8 0 0 1 13.676-43.166 47.25 47.25 0 0 1 38.305-16.722 45.37 45.37 0 0 1 35.065 13.676 52.43 52.43 0 0 1 12.638 37.008c0 3.889-.064 6.806-.259 8.815m-22.231-12.379q0-29.944-25.926-29.944a25.92 25.92 0 0 0-21.583 9.851 42.9 42.9 0 0 0-8.555 27.806z"/></svg>