<svg xmlns="http://www.w3.org/2000/svg" id="Layer_1" data-name="Layer 1" viewBox="0 0 950 950"><defs><style>.cls-5{fill-rule:evenodd;fill:gold}</style></defs><path d="m442.73 87.18.2.04h.27l.25-.07.25-.11.22-.16.18-.22.13-.24.07-.27.02-.27-.07-1.93-.04-1.91.04-1.89.05-1.87.13-1.87.16-1.85.22-1.85.27-1.83.56-3.07.69-3.03.85-3.05.98-3.03 1.14-3.05 1.29-3.07 1.43-3.09 1.6-3.14 1.71-3.09 1.89-3.18 2.07-3.29 2.29-3.45 2.45-3.54 2.8-3.89 3.18-4.32 4.5-5.99.05-.09.27-.27.15-.07.15-.02.13.04.13.07.27.27 1.51 2.07 4.36 6.07 3.11 4.38 2.72 3.96 2.4 3.63 2.23 3.54 2.02 3.36 1.83 3.27 1.65 3.16 1.54 3.23 1.38 3.2 1.22 3.14 1.05 3.14.91 3.12.4 1.56.38 1.56.31 1.56.29 1.56.25 1.58.22 1.58.29 2.83.18 2.87.05 2.87-.05 2.91v.09l.04.25.09.24.13.22.18.18.2.15.24.11.25.05h.25l2.82-.36 2.78-.45 2.76-.6 2.71-.69 2.45-.73 2.43-.84 2.4-.93 2.38-1.02.24-.07h.24l.24.05.2.13.16.18.11.2.05.24-.02.24-.09.25-.16.22-1.67 1.6-1.63 1.62-1.62 1.65-1.56 1.69-1.53 1.71-1.49 1.73-1.47 1.76-1.42 1.8-1.58 2.07-1.53 2.11-1.49 2.14-1.43 2.18-1.4 2.23-1.34 2.25-1.29 2.29-1.25 2.32-1.25 2.29-1.33 2.18-1.38 2.03-1.45 1.94-1.49 1.8-1.56 1.69-1.62 1.56-1.65 1.4-1.71 1.29-1.74 1.14-1.8 1.02-1.83.85-.93.38-.94.36-.94.29-.94.27-.96.24-.96.2-.96.16-.98.13-1.22.11-1.24.05-1.24-.02-1.24-.05-1.25-.13-1.24-.18-1.24-.25-1.23-.29-1.24-.36-1.22-.4-1.22-.47-1.2-.53-1.2-.58-1.2-.64-1.18-.67-1.16-.74-1.14-.78-1.13-.85-1.11-.89-1.11-.94-1.07-.98-1.05-1.04-1.04-1.09-1.02-1.13-.98-1.18-.96-1.22-.94-1.25-.91-1.29-.87-1.33-.87-1.38-.82-1.42-.8-1.45-1.05-1.93-1.09-1.91-1.11-1.89-1.16-1.85-1.18-1.83-1.22-1.8-1.24-1.8-1.29-1.76-1.47-1.94-1.53-1.91-1.56-1.89-1.6-1.85-1.65-1.82-1.69-1.8-1.73-1.76-1.76-1.73-.11-.16v-.2l.09-.16.16-.11h.2l21.16 5.49Zm51.46 12.21.11-1.71.02-1.67-.04-1.67-.13-1.67-.22-1.91-.33-1.93-.44-1.93-.53-1.93-.62-1.94-.73-1.94-.84-1.98-.94-2.02-1.04-2-1.13-2.03-1.27-2.12-1.4-2.25-1.53-2.31-1.74-2.54-4.81-6.76-1.09-1.53-.24-.24-.11-.05-.13-.02-.11.02-.13.05-.24.24-3.03 4.05-2.25 3.11-1.98 2.83-1.74 2.63-1.62 2.6-1.43 2.47-1.27 2.4-1.14 2.36-1.04 2.4-.89 2.36-.73 2.32-.6 2.31-.47 2.31-.31 2.29-.18 2.29-.05 2.27.05 1.49.11 1.51v.25l-.04.22-.05.18-.11.13-.15.07-.18.04h-.22l-.25-.05-13.04-3.6-.51-.09-.15.02-.07.05-.02.09.05.15.33.4 2.14 2.34 2.09 2.42 2 2.45 1.94 2.51 1.54 2.13 1.51 2.16 1.45 2.22 1.4 2.23 1.11 1.74 1.14 1.65 1.16 1.54 1.18 1.42 1.2 1.33 1.22 1.2 1.25 1.11 1.27.98 1.27.89 1.31.74 1.29.64 1.33.51 1.31.4 1.33.27 1.31.16 1.33.02 1.29-.07 1.27-.2 1.29-.33 1.27-.44 1.25-.54 1.25-.67 1.22-.76 1.22-.89 1.2-1 1.18-1.11 1.16-1.22 1.13-1.31 1.11-1.42 1.09-1.54 1.05-1.62 1.04-1.73 1.04-1.76 1.07-1.73 1.13-1.69 1.14-1.67 1.2-1.62 1.24-1.58 1.27-1.56 1.31-1.53 1.16-1.27 1.18-1.24 1.2-1.22 1.24-1.2.11-.2.02-.22-.11-.2-.2-.11h-.22l-13.1 3.51-.29.05-.25.02-.22-.05-.16-.09-.13-.15-.07-.2-.04-.24v-.31Z" style="fill-rule:evenodd;fill:#e50013"/><path d="m502.4 511.47-.28-.07-.18-.15-.14-.23-.06-.31-.18-40.67-.11-40.73v-40.78l.07-40.85-.03-8.52-.18-9.1-.31-9.86-.53-13.19-.47-11.72-.27-8.5-.19-7.68-.05-7.05.05-6.9.17-6.59.29-6.4.42-6.21.25-2.91.33-2.87.4-2.81.45-2.8.53-2.76.58-2.72.65-2.67.73-2.66.8-2.61.85-2.56.93-2.55.98-2.48 1.07-2.48 1.11-2.41 1.2-2.4 1.25-2.34 1.27-2.24 1.33-2.18 1.4-2.16 1.43-2.1 1.53-2.09 1.56-2.06 1.64-2.01 1.7-1.98 1.75-1.96 1.83-1.91 1.87-1.89 1.95-1.85 1.99-1.8 2.07-1.8 2.13-1.74 2.18-1.71 12.33-9.36 12.41-9.24 12.5-9.16 12.6-9.06 1.38-1.04 1.47-1.21 1.51-1.33 1.58-1.49 1.6-1.6 1.64-1.72 1.63-1.82 1.6-1.85 1.58-1.93 1.51-1.92 1.45-1.95 1.33-1.9 1.25-1.86 1.11-1.79 1-1.73.85-1.62.93-1.92.83-2 .78-2.02.69-2.09.62-2.12.56-2.18.48-2.22.4-2.27.31-2.3.25-2.37.16-2.39.11-2.46.02-2.47-.05-2.52-.13-2.56-.22-2.6-.27-2.63-.37-2.69-.43-2.73-.53-2.74-.58-2.78-.67-2.8-.73-2.81-.82-2.83-.89-2.86-.94-2.85-1.04-2.85-1.09-2.85-1.16-2.85-1.2-2.82-1.29-2.81-1.32-2.77-.04-.23.09-.24.2-.14.24-.02.14.07.11.09 3.38 4.23 3.13 3.96 2.92 3.78 2.78 3.65 2.67 3.58 2.54 3.49 2.45 3.41 2.33 3.37 2.25 3.32 2.18 3.29 2.07 3.23 1.98 3.22 1.89 3.14 1.82 3.12 1.71 3.07 1.63 3.05 1.56 3.06 1.49 3.01 1.38 2.98 1.31 2.94 1.22 2.93 1.14 2.88 1.04 2.86.96 2.81.89 2.82.78 2.76.71 2.74.62 2.69.54 2.69.44 2.63.38 2.64.27 2.59.22 2.87.09 2.85-.02 2.78-.11 2.78-.23 2.75-.37 2.72-.45 2.69-.56 2.65-.46 1.82-.51 1.8-.56 1.79-.62 1.78-.67 1.77-.71 1.76-.78 1.74-.83 1.75-.89 1.72-.93 1.71-.98 1.71-1.06 1.7-1.1 1.69-1.17 1.71-1.19 1.67-1.28 1.67-1.32 1.67-1.38 1.67-1.42 1.66-1.51 1.65-1.54 1.67-1.62 1.65-1.67 1.68-1.76 1.67-1.8 1.67-1.87 1.69-1.96 1.71-2.02 1.7-4.28 3.49-4.67 3.6-5.83 4.36-8.14 5.99-10.92 8.05-4.16 3.12-3.79 2.91-3.66 2.85-3.43 2.72-3.27 2.67-3.09 2.6-3.05 2.64-2.94 2.61-2.8 2.58-2.67 2.56-2.56 2.54-2.47 2.55-2.34 2.52-2.25 2.53-2.22 2.61-2.13 2.62-2.03 2.63-1.91 2.64-1.83 2.63-1.73 2.67-1.63 2.67-1.53 2.67-1.45 2.71-1.35 2.72-1.25 2.75-1.16 2.74-1.07 2.78-.98 2.79-.89 2.84-.8 2.83-.26 1.02-.34 1.47-.33 1.6-.31 1.67-.29 1.8-.51 3.89-.42 4.3-.36 4.72-.27 5.13-.18 5.54-.11 5.95-.22 21.44-.18 21.41-.13 21.4-.09 21.42-.05 21.38-.02 21.38.02 21.36.07 21.36-.04.53-.09.45-.18.38-.25.27-.31.22-.4.11-.46.04-.54-.04zm-51.63-236.76-.12 6.34-.19 6.96-.25 7.74-.38 10.59-.47 12.73-.28 9.19-.18 8.18-.05 7.32-.04 83.08.02 83.14-.02.29-.05.27-.11.24-.13.2-.18.16-.22.15-.25.09-.31.07-14.75 2.27-.09.02-.24-.02-.22-.05-.21-.09-.19-.15-.14-.18-.13-.2-.07-.22-.02-.23.07-22.09.02-22.02-.02-21.94-.05-21.83-.09-21.78-.13-21.69-.18-21.62-.22-21.52-.11-5.38-.18-5.03-.25-4.67-.33-4.34-.42-3.98-.51-3.61-.56-3.29-.33-1.51-.32-1.41-.57-2.15-.6-2.11-.87-2.72-.94-2.69-1.02-2.67-1.09-2.65-1.2-2.62-1.25-2.61-1.36-2.6-1.42-2.56-1.53-2.54-1.6-2.55-1.69-2.52-1.76-2.51-1.87-2.5-1.94-2.49-2.04-2.49-2.14-2.47-2.14-2.4-2.24-2.4-2.34-2.4-2.43-2.41-2.55-2.42-2.63-2.45-2.78-2.47-2.89-2.51-2.91-2.45-3.06-2.52-3.24-2.6-3.43-2.69-3.58-2.76-3.9-2.96-10.27-7.65-8.97-6.66-6.41-4.87-5.63-4.42-2.56-2.07-2.42-2.01-2.38-2.04-2.27-1.98-2.16-1.94-2.06-1.93-1.96-1.89-1.87-1.88-1.78-1.86-1.69-1.83-1.25-1.44-1.22-1.43-1.16-1.47-1.13-1.47-1.09-1.51-1.03-1.51-.98-1.53-.95-1.54-.91-1.56-.85-1.56-.8-1.58-.76-1.6-.73-1.64-.67-1.61-.62-1.66-.6-1.67-.49-1.56-.47-1.58-.42-1.62-.4-1.6-.34-1.63-.31-1.64-.27-1.65-.22-1.67-.2-1.67-.15-1.69-.11-1.71-.07-1.7-.02-1.75v-1.74l.06-1.76.09-1.77.13-1.79.16-1.78.22-1.82.25-1.82.27-1.85.33-1.84.78-3.74.93-3.79 1.09-3.84 1.25-3.9 1.42-3.93 1.56-3.99 1.71-4.02 1.89-4.08 2.01-4.13 2.2-4.19 2.35-4.25 2.5-4.29 2.67-4.36 2.82-4.38 2.98-4.46 3.14-4.53 3.3-4.58 3.49-4.66 3.67-4.76 3.87-4.87 4.11-5.05.49-.56.36-.38.27-.2.09-.04.08.02.05.05v.09l-.04.35-.16.51-.25.69-2.31 5.88-2.05 5.56-.93 2.67-.85 2.62-.82 2.54-.75 2.49-.69 2.43-.63 2.38-.6 2.36-.53 2.29-.47 2.25-.42 2.22-.36 2.18-.33 2.14-.25 2.13-.22 2.09-.16 2.05-.11 2.03-.06 2v1.98l.06 1.95.11 1.92.16 1.89.2 1.89.27 1.85.31 1.84.36 1.81.44 1.8.47 1.76.53 1.77.94 2.76 1.11 2.72 1.24 2.69 1.38 2.67 1.5 2.62 1.68 2.59 1.79 2.55 1.97 2.54 2.08 2.51 2.26 2.5 2.39 2.45 2.57 2.46 2.7 2.43 2.87 2.42 3.02 2.39 3.19 2.38 5.38 3.85 7.54 5.31 9.26 6.54 6.74 4.88 3.09 2.31 2.91 2.2 2.74 2.16 2.6 2.09 2.56 2.12 2.45 2.11 2.33 2.05 2.21 2.07 2.11 2.02 2.03 2.04 1.91 1.99 1.83 2.02 1.91 2.2 1.84 2.25 1.74 2.27 1.67 2.31 1.58 2.34 1.51 2.38 1.43 2.4 1.37 2.45.87 1.71.85 1.7.82 1.75.76 1.74.77 1.78.7 1.8.68 1.84.63 1.83.62 1.87.58 1.89.55 1.93.52 1.94.47 1.98.46 2.02.82 4.1.7 4.21.57 4.36.47 4.53.36 4.76.26 4.94.14 5.25.06 5.61z" class="cls-5"/><path d="m495.35 100.35 13.09-3.5h.22l.2.11.11.2-.02.22-.11.2-1.23 1.19-1.2 1.22-1.18 1.24-1.16 1.27-1.31 1.52-1.27 1.57-1.24 1.58-1.2 1.61-1.14 1.67-1.13 1.69-1.07 1.73-1.03 1.76-1.04 1.73-1.05 1.61-1.09 1.55-1.11 1.41-1.13 1.31-1.16 1.22-1.18 1.11-1.2 1-1.22.89-1.21.76-1.26.67-1.25.55-1.27.43-1.29.33-1.27.2-1.29.07-1.33-.02-1.31-.16-1.32-.27-1.31-.4-1.33-.51-1.29-.64-1.3-.74-1.27-.89-1.28-.98-1.25-1.11-1.22-1.2-1.2-1.33-1.18-1.41-1.16-1.55-1.14-1.65-1.11-1.74-1.4-2.24-1.45-2.21-1.51-2.17-1.54-2.12-1.95-2.51-2-2.45-2.09-2.42-2.14-2.34-.33-.4-.05-.14.02-.09.07-.06.15-.02.5.09 13.05 3.6.25.05h.22l.18-.03.15-.07.11-.13.05-.18.04-.22v-.26l-.11-1.5-.06-1.49.06-2.27.18-2.29.31-2.29.47-2.31.6-2.3.73-2.33.89-2.36 1.03-2.4 1.15-2.36 1.27-2.4 1.43-2.47 1.62-2.6 1.74-2.63 1.98-2.83 2.25-3.11 3.04-4.05.23-.24.13-.05.11-.02.13.02.11.05.23.24 1.09 1.53 4.82 6.75 1.74 2.55 1.53 2.3 1.39 2.26 1.28 2.12 1.12 2.04 1.04 1.99.94 2.02.84 1.98.72 1.94.62 1.95.53 1.92.43 1.93.33 1.92.22 1.91.13 1.67.03 1.67-.02 1.67-.1 1.71v.31l.03.24.07.2.13.14.17.09.21.06.26-.02z" style="fill:#fff;fill-rule:evenodd"/><path d="m563.39 541.84.02 1.98.13 3.2.16 4.28.06 3.22-.06 2.83-.16 2.44-.13.71-.07.18-.09.07-.13-.04-.13-.16-.29-.67-3.14-8.5-3.22-8.41-.63-1.57-.64-1.49-.65-1.38-.67-1.32-.71-1.25-.73-1.19-.74-1.14-.78-1.09-.75-.96-.8-.95-.85-.96-.93-.94-2.05-1.97-3.02-2.68-3.83-3.4-.31-.33-.2-.36-.14-.42-.04-.43.02-32.86.02-33.83-.04-12.93-.09-11.84-.13-11.5-.16-10.9-.22-10.44-.27-10.05-.11-6.1.02-5.96.18-5.78.13-2.83.18-2.8.2-2.76.25-2.74.28-2.69.32-2.65.35-2.64.38-2.59.42-2.56.47-2.53.49-2.51.53-2.48.58-2.46.6-2.41.63-2.4.69-2.38.71-2.34.76-2.33.8-2.3.82-2.28.87-2.25.91-2.21.95-2.22.98-2.18 1.01-2.18 1.08-2.14 1.72-3.29 1.84-3.25 1.9-3.2 2.02-3.16 2.12-3.12 2.24-3.09 2.31-3.04 2.43-3.01 2.52-2.96 2.64-2.94 2.74-2.91 2.83-2.87 2.97-2.83 3.07-2.82 3.17-2.78 3.29-2.76 3.49-2.82 4.07-3.19 4.76-3.65 6.83-5.22 8.86-6.73 6.6-5.11 5.92-4.69 5.37-4.36 5.09-4.26 4.69-4.09 4.3-3.94 3.96-3.8 1.93-1.92 1.83-1.95 1.8-1.98 1.71-2 1.67-2.01 1.58-2.05 1.54-2.08 1.45-2.08 1.42-2.11 1.33-2.15 1.27-2.16 1.22-2.18 1.14-2.23 1.09-2.23 1.04-2.28.94-2.27 1-2.56.91-2.58.82-2.61.76-2.64.67-2.67.62-2.72.52-2.73.46-2.77.36-2.8.31-2.85.24-2.87.14-2.91.07-2.94v-2.98l-.07-3-.14-3.05-.24-3.09-.29-3.12-.38-3.16-.46-3.2-.5-3.23-.62-3.29-.67-3.33-.75-3.37-.83-3.42-.91-3.45-.98-3.52-1.08-3.56-1.12-3.64-1.22-3.67-1.31-3.74-1.38-3.79-.01-.22.09-.2.2-.11h.21l.11.05.09.08 4.54 5.43 4.4 5.43 4.21 5.41 4.06 5.4 3.86 5.35 3.71 5.35 3.52 5.28 3.35 5.25 3.14 5.21 2.96 5.14 2.78 5.13 2.58 5.05 1.21 2.48 1.17 2.49 1.14 2.49 1.07 2.45 1.02 2.46.98 2.41.95 2.44.87 2.39.83 2.38.78 2.35.75 2.36.67 2.32.66 2.33.58 2.29.54 2.27.49 2.27.46 2.25.4 2.23.34 2.22.29 2.2.26 2.18.2 2.16.16 2.14.11 2.15.05 2.1.02 2.11-.05 2.07-.08 2.07-.14 2.04-.18 2.03-.24 2-.27 2-.35 1.96-.36 1.96-.44 1.93-.47 1.92-.53 1.91-.58 1.87-.61 1.87-.68 1.85-.61 1.58-.66 1.57-.69 1.56-.72 1.54-.77 1.53-.8 1.52-.83 1.49-.87 1.49-.91 1.47-.95 1.47-.98 1.44-1.02 1.44-1.05 1.41-1.09 1.42-1.12 1.38-1.17 1.38-2.78 3.14-2.92 3.11-3.07 3.1-3.22 3.11-3.37 3.11-3.56 3.1-3.73 3.13-3.92 3.18-3.98 3.08-4.21 3.16-4.45 3.24-4.76 3.36-4.94 3.39-5.45 3.67-6.05 4.02-8.28 5.43-11.39 7.48-8.18 5.49-3.72 2.58-3.49 2.43-3.31 2.38-3.1 2.29-2.91 2.22-2.83 2.19-2.73 2.22-2.67 2.24-2.56 2.23-2.49 2.23-2.39 2.24-2.31 2.25-2.2 2.23-2.12 2.26-2.04 2.23-1.92 2.24-1.86 2.25-1.76 2.23-1.65 2.24-1.56 2.25-1.47 2.21-1.37 2.24-1.29 2.23-1.18 2.2-1.09 2.22-.98 2.21-.91 2.22-.8 2.2-.7 2.19-.62 2.18-.51 2.18-.44 2.18-.32 2.18-.22 2.15-.15 2.18-.03 2.14.09 37.4-.04 37.42-.14 37.4zM317.48 223.29l11.34 8.45 8.37 6.34 3.8 2.96 3.58 2.81 3.37 2.73 3.22 2.65 3.18 2.67 3.05 2.62 2.91 2.57 2.79 2.57 2.69 2.5 2.6 2.51 2.49 2.49 2.4 2.49 2.41 2.56 2.31 2.58 2.21 2.58 2.15 2.56 2.05 2.59 1.98 2.6 1.91 2.62 1.81 2.61 1.75 2.66 1.67 2.65 1.6 2.69 1.52 2.7 1.46 2.75 1.36 2.74 1.32 2.8 1.24 2.81 1.04 2.47.98 2.53.92 2.54.87 2.58.82 2.58.76 2.61.73 2.66.67 2.67.62 2.7.56 2.75.51 2.74.46 2.81.41 2.82.37 2.85.31 2.89.25 2.92.26 3.64.19 3.79.13 3.94.09 4.16.02 4.29-.02 4.69-.22 12.15-.16 8.77-.23 18.13-.17 17.09-.11 16.02-.05 14.97v13.9l.05 12.86.11 11.79.18 10.73-.01.87-.06.82-.13.76-.18.73-.23.67-.3.62-.36.56-.4.51-.47.47-.53.42-1.25.91-1.18.93-1.15.94-1.09.96-1.03.99-1.02 1.03-.96 1.04-.93 1.09-.81 1.01-.8 1.07-.77 1.09-.72 1.13-.71 1.15-.67 1.19-.68 1.24-.63 1.31-1.2 2.65-1.18 2.98-1.22 3.34-1.56 4.69-1.93 5.68-.12.24-.22.18-.26.09h-.27l-.25-.09-.22-.16-.13-.24-.05-.27-.11-41.78-.05-41.76.03-41.72.09-41.69-.05-2.34-.17-2.37-.27-2.36-.4-2.36-.52-2.38-.62-2.4-.75-2.38-.87-2.39-.96-2.4-1.09-2.4-1.22-2.41-1.32-2.44-1.44-2.41-1.54-2.42-1.67-2.45-1.78-2.44-1.91-2.43-2-2.43-2.13-2.46-2.23-2.45-2.34-2.47-2.47-2.45-2.58-2.47-2.69-2.45-2.82-2.49-2.9-2.47-3.02-2.47-3.16-2.49-3.25-2.49-3.38-2.51-3.54-2.52-3.67-2.56-12.17-8.32-12.19-8.27-12.26-8.19-12.28-8.16-3.43-2.28-3.31-2.31-3.21-2.29-3.11-2.29-2.98-2.29-2.9-2.3-2.8-2.31-2.69-2.31-2.6-2.32-2.5-2.33-2.42-2.34-2.31-2.34-2.23-2.38-2.13-2.38-2.03-2.38-1.94-2.4-1.86-2.42-1.76-2.43-1.65-2.43-1.58-2.46-1.47-2.47-1.38-2.47-1.31-2.5-1.2-2.51-1.11-2.53-1-2.52-.92-2.56-.84-2.56-.74-2.6-.64-2.58-.56-2.62-.46-2.61-.31-2.18-.25-2.22-.18-2.19-.13-2.22-.05-2.22v-2.25l.07-2.23.13-2.27.27-3.04.36-3.07.49-3.1.58-3.18.69-3.2.8-3.25.89-3.32 1-3.35 1.11-3.39 1.22-3.42 1.32-3.49 1.42-3.52 1.51-3.56 1.63-3.58 1.73-3.63 1.82-3.67 1.94-3.72 2.03-3.75 2.15-3.79 2.23-3.8 2.34-3.85 2.42-3.85 2.52-3.87 2.6-3.89 2.71-3.9 2.78-3.91 2.87-3.92 2.92-3.89 3.02-3.89 3.07-3.86 3.14-3.84 3.16-3.78.13-.1.16-.08.16-.02.15.02.14.08.13.09.09.14.04.15.02.16-.04.15-1.85 5.26-1.71 5.22-1.58 5.14-1.43 5.07-1.29 4.97-1.15 4.89-1 4.78-.85 4.7-.71 4.56-.56 4.47-.42 4.34-.27 4.25-.11 4.1v2.02l.02 2 .07 1.94.11 1.95.14 1.89.18 1.87.3 2.41.34 2.38.42 2.36.45 2.35.53 2.32.6 2.29.63 2.29.71 2.25.71 2.05.75 2.02.8 2.02.83 1.99.91 2 .94 1.96 1.02 1.97 1.04 1.92 1.1 1.95 1.17 1.9 1.2 1.91 1.25 1.87 1.32 1.89 1.37 1.87 1.41 1.85 1.48 1.86 1.52 1.83 1.58 1.84 1.64 1.81 1.69 1.84 1.74 1.79 1.82 1.82 1.87 1.82 1.92 1.81 2 1.8 2.05 1.82 2.13 1.82 2.2 1.83 2.27 1.83 2.34 1.84z" class="cls-5"/><path d="m791.17 233.28.84 2.85.78 2.84.73 2.81.67 2.8.6 2.8.56 2.76.51 2.74.44 2.73.38 2.7.32 2.69.28 2.67.22 2.65.16 2.64.09 2.61.05 2.6-.01 2.56-.06 2.56-.13 2.53-.18 2.52-.23 2.49-.31 2.47-.35 2.45-.42 2.44-.45 2.39-.53 2.4-.58 2.36-.63 2.35-.68 2.3-.76 2.31-.8 2.27-.85 2.25-.93 2.22-.89 2.05-.94 2.02-1 2.01-1.04 1.97-1.09 1.98-1.14 1.92-1.2 1.93-1.22 1.89-1.29 1.87-1.32 1.85-1.38 1.83-1.42 1.8-1.47 1.78-1.51 1.76-1.56 1.73-1.6 1.71-1.65 1.69-1.69 1.65-1.75 1.65-1.79 1.6-1.84 1.6-1.87 1.54-1.92 1.55-1.97 1.51-1.99 1.47-2.06 1.45-2.09 1.44-2.12 1.39-2.18 1.37-2.22 1.34-2.25 1.33-2.29 1.27-2.34 1.27-2.38 1.22-2.43 1.21-2.46 1.17-2.5 1.14-2.53 1.11-2.58 1.09-2.61 1.03-2.64 1.02-2.67.98-2.7.95-2.73.92-2.78.89-2.8.84-2.83.82-2.85.78-2.89.74-2.9.73-2.95.67-2.94.64-2.98.61-3 .57-3.03.54-3.03.49-3.05.46-3.07.43-3.09.38-3.11.35-3.1.33-3.13.27-3.12.23-3.15.2-3.36.22-2.83.22-2.56.25-2.34.29-2.22.35-2.11.4-1.96.44-1.87.5-1.8.57-1.72.65-1.62.69-1.54.78-1.48.84-1.38.91-1.32 1-1.26 1.05-1.18 1.16-1.12 1.22-1.06 1.31-.98 1.39-.91 1.48-.85 1.54-.78 1.65-.73 1.73-.92 2.51-.84 2.48-.73 2.47-.61 2.46-.49 2.25-.4 2.27-.35 2.32-.29 2.4-.2 2.47-.14 2.58-.09 2.73-.04 2.88-.04 112.53v37.6l-.03.17-.08.16-.11.15-.12.12-.15.09-.18.06-.16.02-.18-.02-1.6-.35-1.58-.38-1.57-.42-1.52-.47-1.53-.51-1.5-.56-1.48-.6-1.47-.64-1.3-.61-1.31-.66-1.29-.71-1.27-.72-1.28-.76-1.23-.8-1.22-.84-1.21-.87-.35-.33-.24-.4-.12-.43-.02-.48.05-.94v-1.02l-.07-1.11-.16-1.49-.15-1.63-.05-1.16-.06-16.3-.12-22.28-.15-25-.04-18.31.04-16.55.15-15.13.23-14.69.36-13.93.46-13.32.58-12.8.27-4.55.35-4.23.43-3.98.51-3.76.6-3.57.71-3.44.8-3.27.89-3.14 1-3.03 1.12-2.93.59-1.4.63-1.38.64-1.36.69-1.32.71-1.29.74-1.28.76-1.25.8-1.22.82-1.2.85-1.16.88-1.14.9-1.11.99-1.14 1.03-1.11 1.04-1.09 1.09-1.07 1.1-1.02 1.17-1.02 1.18-.96 1.21-.96 2.2-1.66 2.29-1.63 2.38-1.67 2.47-1.67 2.56-1.67 2.67-1.71 2.8-1.73 2.91-1.76 6.04-3.51 6.74-3.77 7.63-4.15 10.57-5.61 12.9-6.86 4.91-2.67 4.46-2.48 4.31-2.43 4.05-2.34 3.83-2.29 3.65-2.25 3.62-2.29 3.43-2.25 3.31-2.26 3.18-2.25 3.01-2.23 2.93-2.24 2.79-2.23 2.67-2.25 2.67-2.37 2.55-2.36 2.43-2.38 2.32-2.39 2.24-2.44 2.11-2.45 1.99-2.47 1.91-2.51 1.8-2.54 1.71-2.56 1.58-2.6 1.49-2.61 1.4-2.66 1.29-2.69 1.19-2.74 1.09-2.76.88-2.38.78-2.43.71-2.45.65-2.49.56-2.49.51-2.54.42-2.57.36-2.59.29-2.62.22-2.67.15-2.69.07-2.72v-2.75l-.07-2.79-.13-2.82-.22-2.85-.27-2.94-.33-2.93-.36-2.94-.42-2.91-.45-2.83-.49-2.82-.53-2.81-.58-2.82-.62-2.79-.67-2.8-.71-2.8-.74-2.78-.8-2.76-.84-2.78-.89-2.76-.93-2.76-.96-2.74-1.02-2.75-1.05-2.74-1.11-2.72-.03-.15.01-.16.06-.11.09-.11.11-.07.11-.04h.14l.13.02.11.07.09.09 4.41 6.11 4.24 6.06 4.08 6.05 3.87 6 3.73 5.97 3.54 5.98 3.36 5.92 3.2 5.9 3.01 5.89 2.85 5.85 1.36 2.92 1.31 2.91 1.27 2.91 1.24 2.9 1.18 2.89 1.14 2.87 1.11 2.91 1.06 2.87.99 2.85.97 2.87.92 2.85zM370.89 543.71l.01 3.67.08 5.83.12 10.08-.01 7.65-.08 3.47-.11 3.23-.14 3-.18 2.8-.09.45-.2.42-.28.38-.34.29-2.44 1.54-2.47 1.44-2.52 1.31-2.58 1.2-2.83 1.18-2.87 1.03-2.95.91-2.99.78-.13.02-.24.02-.23-.06-.22-.09-.2-.14-.16-.18-.13-.2-.07-.24-.02-.24.02-76.78-.08-77.01-.01-1.78-.1-1.82-.12-1.84-.17-1.83-.21-1.83-.28-1.82-.31-1.82-.36-1.8-.4-1.74-.43-1.71-.48-1.69-.52-1.63-.57-1.6-.6-1.54-.63-1.51-.66-1.45-.7-1.38-.71-1.31-.77-1.27-.79-1.22-.82-1.15-.86-1.12-.87-1.04-.92-1-.93-.92-.96-.87-1-.8-1.04-.77-1.03-.69-1.07-.63-1.11-.57-1.13-.52-1.25-.49-1.31-.42-1.31-.35-1.36-.27-4.58-.73-5.3-.69-6.16-.7-8.75-.89-11.81-1.22-4.45-.53-4.02-.51-3.77-.56-3.49-.56-3.24-.6-2.99-.64-4.53-1.07-4.5-1.18-4.41-1.25-4.38-1.35-4.32-1.41-4.24-1.53-4.16-1.58-4.08-1.69-3.98-1.74-3.91-1.84-3.79-1.89-3.73-1.98-3.61-2.05-3.51-2.12-3.41-2.18-3.31-2.26-3.18-2.32-3.08-2.36-2.97-2.46-2.85-2.48-2.76-2.58-2.63-2.62-2.53-2.69-2.41-2.74-2.29-2.8-2.18-2.87-2.07-2.9-1.95-2.96-1.81-3.02-1.71-3.09-1.62-3.12-1.47-3.2-1.22-2.87-1.1-2.89-.75-2.1-.69-2.15-.65-2.14-.6-2.16-.55-2.22-.5-2.2-.46-2.25-.4-2.25-.34-2.27-.31-2.31-.26-2.31-.2-2.34-.16-2.36-.09-2.38-.07-2.4v-2.41l.03-2.46.09-2.45.15-2.47.18-2.49.24-2.54.29-2.52.34-2.57.38-2.56.44-2.58.49-2.63.53-2.62.58-2.65.63-2.65.68-2.69.72-2.69.78-2.72.84-2.74.87-2.78.93-2.76.98-2.8 1.03-2.82 1.08-2.83 1.12-2.83 1.16-2.87 1.24-2.86 1.25-2.88 1.33-2.91 1.36-2.92 1.42-2.93 1.45-2.92 1.51-2.96 1.56-2.97 3.25-5.94 3.44-6.01 3.61-5.99 3.78-6.05 3.96-6.03 4.1-6.03 4.27-6.01 4.38-5.96.13-.13.16-.07.15-.02.14.04.13.05.11.09.09.13.03.14v.15l-.03.14-1.18 2.84-1.13 2.85-1.09 2.87-1.03 2.87-1.51 4.45-1.38 4.49-1.27 4.52-1.18 4.58-1.06 4.59-.94 4.63-.84 4.69-.72 4.72-.39 3.02-.3 2.98-.24 2.96-.15 2.91-.07 2.9.02 2.85.09 2.84.16 2.79.24 2.78.33 2.75.41 2.72.48 2.69.56 2.67.65 2.63.71 2.6.8 2.58 1.11 3.18 1.23 3.12 1.35 3.11 1.49 3.07 1.58 3.01 1.72 2.98 1.86 2.96 1.98 2.91 2.1 2.89 2.22 2.85 2.36 2.82 2.49 2.79 2.62 2.76 2.74 2.75 2.89 2.7 3.01 2.69 3.07 2.62 3.2 2.56 3.34 2.58 3.47 2.56 3.65 2.56 3.78 2.56 3.96 2.58 4.14 2.58 4.2 2.54 4.41 2.58 4.63 2.64 4.93 2.72 5.12 2.76 5.57 2.93 6.16 3.19 7.87 4.02.71.36 7.95 4.07 5.8 3.05 5.15 2.85 4.65 2.71 2.24 1.38 2.16 1.36 2.05 1.35 1.98 1.36 1.91 1.36 1.83 1.36 1.77 1.35 1.69 1.38 1.69 1.43 1.61 1.44 1.55 1.45 1.49 1.47 1.41 1.49 1.35 1.49 1.3 1.55 1.24 1.52 1.16 1.56 1.11 1.58 1.05 1.6.98 1.62.93 1.63.89 1.68.8 1.68.76 1.73.57 1.4.54 1.43.49 1.44.46 1.45.59 2.15.59 2.25.52 2.34.51 2.42.46 2.52.43 2.62.38 2.7.35 2.82.32 2.89.28 2.99.23 3.07.2 3.18.19 3.27.12 3.36.09 3.45.06 3.55.23 30.11.13 30.12-.02 30.13zM503.23 162.4l-.03.51-.1.51-.18.53-.23.49-.29.51-.39.49-.41.49-.51.47-.56.47-.62.47-.67.44-.75.44-.78.41-.85.4-1.86.77-2.05.69-2.22.61-2.36.53-2.49.44-2.59.34-2.67.26-2.73.14-2.76.06-2.76-.06-2.72-.14-2.67-.26-2.6-.34-2.49-.44-2.36-.53-2.22-.61-2.05-.69-1.85-.77-.86-.4-.78-.41-.74-.44-.68-.44-.61-.47-.57-.47-.5-.47-.42-.49-.38-.49-.29-.51-.24-.49-.18-.53-.09-.51-.04-.51.04-.5.09-.51.18-.53.24-.49.29-.51.38-.49.42-.49.5-.47.57-.47.61-.48.68-.43.74-.44.78-.42.86-.4 1.85-.76 2.05-.69 2.22-.62 2.36-.52 2.49-.44 2.6-.34 2.67-.26 2.72-.14 2.76-.06 2.76.06 2.73.14 2.67.26 2.59.34 2.49.44 2.36.52 2.22.62 2.05.69 1.86.76.85.4.78.42.75.44.67.43.62.48.56.47.51.47.41.49.39.49.29.51.23.49.18.53.1.51z" class="cls-5"/><path d="m149.03 332.5 1.87 3.94 1.98 3.85 2.09 3.76 2.19 3.69 2.31 3.57 2.42 3.51 2.5 3.38 2.62 3.29 2.72 3.19 2.84 3.07 2.9 2.98 3.02 2.87 3.09 2.74 3.19 2.66 3.27 2.5 3.38 2.42 2.73 1.82 2.76 1.74 2.83 1.69 2.89 1.58 2.92 1.52 2.96 1.44 3.02 1.36 3.05 1.27 3.09 1.2 3.14 1.11 3.16 1.04 3.22.94 3.25.87 3.29.78 3.3.71 3.36.62 7.96 1.4 7.55 1.38 7.16 1.36 6.78 1.38 6.35 1.35 6 1.34 5.58 1.33 5.19 1.32 1.82.51 1.72.53 1.67.56 1.62.6 1.54.63 1.48.68 1.43.69 1.36.74 1.31.76 1.24.8 1.19.86 1.13.87 1.09.93 1.02.96.98 1 .93 1.03 1.25 1.6 1.18 1.73 1.05 1.8.97 1.9.85 2.02.78 2.14.69 2.29.62 2.42.51 2.49.43 2.63.38 2.85.33 3.11.27 3.29.24 3.66.2 4.2.24 5.94.01.35.11 3.45.08 3.67.03 3.85v4.14l-.13 9.08-.29 12.72-.36 15.22-.07 5.85-.04 5.37.04 5.22.07 4.94.15 4.72.2 4.52.25 4.51.33 4.36.4 4.19.45 4.09.53 3.96.6 3.85.67 3.72.73 3.64.85 3.65.91 3.56 1 3.43 1.07 3.36 1.14 3.25 1.24 3.18 1.31 3.07 1.39 2.98 1.49 2.91 1.57 2.79 1.63 2.73 1.73 2.63 1.81 2.56 1.91 2.47 1.98 2.4 2.09 2.31 1.25 1.31 1.29 1.29 1.31 1.27 1.36 1.23 1.38 1.2 1.4 1.18 1.44 1.15 1.47 1.12 1.51 1.09 1.54 1.09 1.56 1.04 1.6 1.02 1.62.98 1.67.96 1.67.93 1.72.9 2.89 1.44 3 1.42 3.07 1.36 3.14 1.31 3.23 1.27 3.33 1.23 3.4 1.17 3.45 1.12 3.54 1.09 3.61 1.04 3.65.96 3.73.94 3.78.86 3.83.83 3.85.75 3.91.71 3.96.65 4.01.6 4.01.53 4.04.47 4.05.4 4.03.34 4.05.29 4.03.22 4 .15 3.98.09 3.96.02 3.92-.04 3.87-.11 3.81-.16 3.75-.24 3.68-.29 5.49-.53 5.25-.56 5.07-.62 4.88-.67 4.74-.71 4.58-.76 4.45-.82 4.32-.89 4.22-.92 4.1-1 3.98-1.06 3.87-1.12 3.76-1.17 3.67-1.25 3.54-1.29 3.45-1.36 3.38-1.45 3.27-1.51 3.16-1.56 3.07-1.64 2.96-1.71 2.89-1.76 2.76-1.85 2.67-1.89 2.58-1.98 2.49-2.03 2.38-2.13 2.31-2.18 2.19-2.23 2.09-2.33 2.02-2.4 1.91-2.45 1.56-2.16 1.49-2.22 1.41-2.25 1.37-2.32 1.29-2.36 1.21-2.44 1.15-2.47 1.09-2.54 1-2.56.94-2.64.87-2.69.82-2.74.75-2.8.65-2.85.62-2.89.52-2.96.66-4.12.6-4.16.52-4.25.5-4.29.41-4.39.37-4.47.3-4.58.26-4.7.18-4.67.16-4.83.09-5.03.06-5.29.02-5.43-.04-5.92-.2-15.46-.18-13.84-.04-10.12.09-9.17.1-4.31.12-4.12.17-3.43.2-3.15.27-2.96.34-2.76.42-2.63.49-2.49.56-2.36.64-2.27.73-2.16.81-2.06.89-1.96.98-1.85 1.08-1.78 1.16-1.67 1.25-1.58 1.33-1.49 1.22-1.18 1.25-1.13 1.34-1.07 1.4-1 1.46-.93 1.54-.89 1.6-.81 1.69-.77 2.05-.85 2.14-.82 2.22-.78 2.29-.76 2.4-.75 2.47-.71 2.56-.69 2.69-.67 2.68-.63 2.84-.62 6.12-1.22 6.85-1.21 9.37-1.57 8.83-1.45 6.3-1.13 3.58-.7 3.52-.8 3.47-.88 3.4-.94 3.36-1.04 3.29-1.1 3.23-1.2 3.18-1.27 3.12-1.35 3.07-1.42 3-1.5 2.94-1.58 2.91-1.67 2.83-1.73 2.8-1.83 2.71-1.89 2.07-1.53 2.03-1.58 2.02-1.62 1.96-1.67 1.94-1.7 1.89-1.77 1.87-1.81 1.84-1.86 1.8-1.9 1.76-1.95 1.74-1.99 1.69-2.06 1.67-2.09 1.62-2.14 1.6-2.2 1.56-2.23 1.53-2.29 1.48-2.33 1.48-2.38 1.41-2.41 1.4-2.49 1.35-2.52 1.34-2.58 1.29-2.62 1.25-2.67 1.22-2.71 1.2-2.76 1.14-2.79 1.13-2.87 1.09-2.91 1.05-2.96 1.02-3 .07-.18.13-.16.16-.13.18-.09.2-.06.22-.01.2.05.2.07.17.13.14.2.13.25.07.33.04.38.42 11.12.23 9.01.09 8.14-.02 3.79-.05 3.69-.09 3.63-.13 3.56-.18 3.44-.22 3.36-.27 3.28-.29 3.22-.35 3.14-.4 3.11-.45 3.12-.49 3.07-.55 3-.59 2.96-.64 2.92-.69 2.89-.75 2.84-.79 2.78-.84 2.76-.91 2.7-.94 2.69-1 2.63-1.07 2.64-1.11 2.56-1.16 2.56-1.22 2.53-1.38 2.67-1.44 2.63-1.52 2.6-1.58 2.54-1.66 2.49-1.72 2.45-1.76 2.38-1.86 2.33-1.89 2.28-1.96 2.22-2.03 2.16-2.07 2.09-2.13 2.04-2.18 1.96-2.21 1.89-2.29 1.83-2.33 1.74-2.36 1.69-2.4 1.6-2.45 1.55-2.49 1.45-2.52 1.38-2.56 1.29-2.58 1.24-2.64 1.12-2.65 1.07-2.67.97-2.7.9-2.71.8-2.74.73-2.77.64-2.77.56-3.49.58-3.53.44-3.54.3-3.54.19-3.56.03-3.56-.09-3.58-.23-3.58-.37-2.76-.29-3.63-.31-3.98-.34-3.27-.33-.09-.02-1.74-.14-1.75-.04-1.67.07-1.65.2-1.6.29-1.58.42-1.49.53-1.49.63-.87.44-.84.47-.83.53-.82.56-.78.6-.76.64-.75.67-.71.71-.69.74-.65.78-.65.82-.6.86-.59.87-.54.91-.53.94-.49.98-.47 1-.42 1.04-.4 1.03-.36 1.07-.33 1.09-.29 1.11-.25 1.13-.22 1.14-.18 1.14-.13 1.17-.11 1.18-.07 1.18-.04 1.16v1.18l.06 1.18.07 1.18.47 6.03.46 6.05.4 6.03.36 6.05.24 5.03.12 5 .02 4.96-.07 4.9-.18 4.89-.29 4.83-.4 4.76-.49 4.7-.6 4.65-.71 4.6-.8 4.52-.91 4.45-1 4.38-1.11 4.31-1.2 4.23-1.3 4.14-1.4 4.07-1.49 3.98-1.6 3.9-1.69 3.8-1.78 3.74-1.89 3.65-1.98 3.56-2.07 3.45-2.16 3.38-2.25 3.29-2.35 3.2-2.43 3.1-2.54 3.02-2.62 2.9-2.71 2.84-2.81 2.72-1.96 1.82-2.02 1.78-2.05 1.72-2.09 1.69-2.14 1.62-2.18 1.6-2.2 1.54-2.27 1.51-3.69 2.32-3.76 2.24-3.87 2.14-3.94 2.07-4.01 1.98-4.11 1.89-4.18 1.82-4.27 1.72-4.34 1.64-4.43 1.54-4.5 1.46-4.58 1.36-4.65 1.29-4.71 1.18-4.79 1.09-4.87 1.02-4.94.9-5 .84-5.08.73-5.12.65-5.2.55-5.23.45-5.3.36-5.34.26-5.4.18-5.43.07-5.47-.02-5.5-.11-5.52-.2-5.54-.3-5.56-.39-5.58-.49-5.25-.54-5.18-.64-5.08-.71-5.03-.78-4.91-.87-4.85-.96-4.76-1.04-4.68-1.12-4.58-1.2-4.5-1.27-4.4-1.37-4.34-1.43-4.22-1.53-4.16-1.59-4.05-1.69-3.96-1.77-3.87-1.83-3.77-1.93-3.69-1.99-3.62-2.08-3.48-2.16-3.42-2.23-3.32-2.31-3.22-2.4-3.12-2.45-3.05-2.56-2.95-2.61-2.85-2.71-2.74-2.76-2.67-2.87-2.56-2.93-2.47-3.01-1.75-2.24-1.69-2.27-1.63-2.3-1.58-2.36-1.53-2.4-1.49-2.45-1.43-2.48-1.38-2.5-1.33-2.56-1.29-2.6-1.21-2.63-1.18-2.67-1.13-2.71-1.07-2.76-1.02-2.8-.98-2.83-.93-2.85-.87-2.93-.8-2.94-.78-2.98-.71-3.02-.65-3.07-.62-3.1-.56-3.14-.51-3.18-.45-3.22-.4-3.25-.37-3.29-.29-3.32-.25-3.38-.2-3.4-.15-3.45-.2-6.94-.07-6.54.02-6.17.12-5.78.24-5.39.33-5.02.45-4.63.26-2.18.29-2.07.16-1.25.13-1.29.07-1.29.04-1.31v-1.31l-.06-1.32-.09-1.33-.13-1.31-.16-1.29-.22-1.3-.25-1.28-.31-1.25-.33-1.22-.38-1.2-.4-1.18-.45-1.14-.47-1.09-.51-1.07-.55-1.02-.58-1-.6-.94-.63-.91-.68-.85-.69-.84-.72-.76-.75-.75-.78-.69-.82-.63-.81-.6-.86-.55-.87-.51-.91-.45-1.05-.47-1.09-.4-1.11-.33-1.16-.27-1.16-.22-1.2-.15-1.22-.07-1.25-.02-2.75.09-3.07.19-3.41.29-4.65.47-4.74.47-3.36.27-2.91.15-2.52.04-3.07-.08-3.04-.16-3.03-.24-3-.32-2.99-.42-2.95-.51-2.94-.58-2.91-.67-2.87-.75-2.83-.83-2.82-.93-2.77-1-2.75-1.09-2.7-1.16-2.67-1.26-2.64-1.32-2.21-1.2-2.18-1.24-2.13-1.3-2.11-1.37-2.08-1.41-2.04-1.47-2-1.53-1.96-1.58-1.92-1.63-1.89-1.68-1.86-1.74-1.81-1.78-1.77-1.83-1.72-1.87-1.69-1.93-1.63-1.98-1.6-2.02-1.55-2.07-1.5-2.1-1.46-2.15-1.4-2.18-1.34-2.23-1.31-2.27-1.25-2.31-1.22-2.32-1.14-2.38-1.11-2.4-1.04-2.45-1-2.47-.94-2.53-.89-2.52-.84-2.56-.89-2.91-.81-2.93-.78-2.9-.73-2.93-.84-3.74-.76-3.78-.69-3.81-.6-3.85-.53-3.93-.45-3.99-.38-4.11-.31-4.19-.24-4.14-.16-4.35-.11-4.52-.05-4.79v-4.96l.05-5.49.29-14.68.06-2.27.07-1.58.16-1.14.11-.42.13-.29.14-.2.17-.09.18.04.2.12.24.24.23.35.55 1.03.61 1.45 1.78 4.45 2.04 4.82 2.27 5.21z" class="cls-5"/><path d="m707.51 805.21-1.42-.4-1.38-.42-1.34-.49-1.31-.53-1.29-.58-1.24-.64-1.21-.67-1.17-.71-1.12-.76-1.09-.8-1.05-.83-1-.89-.97-.93-.9-.96-.89-1.02-.82-1.05-.75-1.02-.69-1.05-.65-1.11-.6-1.11-.56-1.16-.51-1.17-.46-1.19-.41-1.2-.37-1.26-.31-1.25-.25-1.27-.22-1.29-.14-1.31-.11-1.31-.06-1.3v-1.33l.04-1.33.11-1.32.14-1.35.2-1.32.26-1.33.31-1.31.36-1.32.4-1.31.45-1.29.51-1.29.55-1.25.6-1.24.63-1.23.71-1.22.73-1.2.78-1.16 1.02-1.4 1.03-1.36 1.11-1.33 1.12-1.27 1.59-1.62 1.65-1.56 1.71-1.47 1.79-1.42 1.88-1.32 1.94-1.26 2-1.18 2.07-1.09 2.14-1.01 2.2-.93 2.27-.85 2.29-.77 2.38-.67 2.4-.6 2.47-.51 2.48-.42 2.58-.32 2.58-.24 2.64-.14 2.63-.08 2.67.04 2.67.13 2.69.22 2.69.3 2.69.4 2.68.49 2.66.59 2.61.65 2.6.74 2.56.84 2.53.91 2.48 1 .29.18.2.22.08.29-.02.32-.4 1.93-.51 1.8-.6 1.63-.67 1.53-.38.71-.4.67-.44.65-.45.62-.47.58-.49.56-.53.51-.55.49-.81.66-.86.58-.91.51-.96.47-1.02.42-1.09.36-1.12.31-1.2.25-1.24.2-1.3.17-1.4.11-1.49.07-1.55.04-1.74-.02-4.6-.13-3.9-.11-2.83-.02-2.53.09-2.23.2-1.93.24-1.76.27-1.65.31-1.53.35-1.45.38-1.35.42-1.25.45-1.14.51-1.08.52-.94.59-.85.61-.75.64-.65.69-.55.73-.47.76-.35.8-.2.69-.14.71-.07.74v.78l.07.77.13.81.21.84.28.87.34.85.4.86.47.85.53.86.62.85.67.87.75.87.81.86.87.87.95.87 1.02.85 1.07.89 1.14.86 1.2.89 2.6 1.72 2.91 1.75 3.14 1.74 3.36 1.71 3.56 1.65 3.74 1.6 3.81 1.51 3.84 1.38 3.65 1.18 1.69.58 1.65.71 1.27.67 1.24.73 1.2.83 1.14.87 1.11.99 1.05 1.03 1.02 1.13.96 1.18.93 1.25.85 1.33.82 1.38.74 1.43.69 1.51.64 1.56.56 1.6.51 1.64.46 1.72.38 1.75.31 1.78.23 1.79.17 1.8.09 1.82.02 1.81-.06 1.78-.13 1.78-.21 1.75-.28 1.71-.34 1.69-.42 1.63-.49 1.58-.56 1.51-.62 1.45-.86 1.76-.89 1.71-.96 1.65-1.01 1.6-1.08 1.58-1.12 1.51-1.2 1.45-1.24 1.42-1.61 1.69-1.71 1.62-1.78 1.52-1.87 1.45-1.96 1.37-2.04 1.29-2.11 1.2-2.19 1.12-2.29 1.04-2.34.96-2.44.85-2.49.78-2.56.71-2.65.6-2.69.53-2.74.42-2.85.34-2.91.26-2.98.16-3 .05-3.05-.01-3.07-.13-3.1-.22-3.15-.31-3.16-.4-3.16-.49-3.14-.58-3.12-.67-3.11-.76-3.09-.86-3.01-.91-2.96-.99-.39-.2-.14-.13-.11-.17-.07-.16-.04-.18.02-.44.45-2.1.57-1.97.63-1.81.38-.86.38-.81.42-.78.44-.75.47-.72.51-.7.51-.65.54-.6.58-.6.6-.54.95-.77 1-.69 1.07-.61 1.14-.57 1.18-.49 1.29-.43 1.35-.37 1.43-.3 1.47-.24 1.57-.18 1.67-.15 1.78-.09 1.87-.04h2.07l5.56.15 5.86.16h2.24l2.02-.05 1.92-.09 1.82-.17 1.72-.2 1.62-.27 1.6-.34 1.52-.4 1.44-.47 1.36-.55 1.31-.62 1.23-.67 1.2-.76 1.11-.84 1.09-.92 1.02-.98.96-1.09.91-1.17.63-.92.55-.91.45-.93.38-.92.3-.93.2-.93.12-.92.04-.91-.04-.89-.11-.89-.2-.89-.27-.87-.36-.89-.42-.88-.51-.89-.58-.85-.67-.89-.73-.87-.82-.87-.89-.88-.96-.85-1.05-.87-1.11-.86-1.18-.83-1.31-.87-1.36-.86-1.45-.87-1.53-.83-1.58-.84-1.65-.82-1.73-.81-1.76-.79-1.89-.79-1.91-.77-1.96-.74-1.98-.71-2.01-.69-1.97-.62-1.89-.56zm-238.12-23.13.06 17.93-.02 18.13-.11 18.36-.18 18.59-.04.98-.09.94-.15.93-.2.89-.23.89-.31.83-.35.82-.39.78-.71 1.15-.82 1.07-.95 1-1.05.92-1.14.86-1.27.8-1.39.7-1.48.64-1.6.56-1.67.49-1.78.39-1.86.3-1.9.22-1.97.13-1.98.04-1.96-.08-.4-.07-.16-.09-.15-.11-.09-.14-.09-.17-.05-.43V733.71l.02-.27.09-.27.12-.26.17-.22.21-.18.24-.14.27-.11.28-.04 3.52-.16h3.14l1.44.03 1.4.08 1.29.12 1.25.15 1.18.18 1.14.22 1.09.27 1.04.29 1.02.35.96.38.94.43.91.46.89.53.87.58.86.63.83.67.84.75.82.8.81.87.84.96.82 1 .83 1.09 1.78 2.49 1.96 3.02 2.4 3.88L501 788.3l21.69 35.91.09.12.12.09.17.06.14.02.17-.02.14-.07.13-.09.09-.13.07-.15.02-.16-.07-37.44v-36.09l.05-1.47.13-1.4.24-1.34.32-1.29.42-1.26.49-1.18.6-1.12.67-1.06.84-1.07.92-1 1.02-.91 1.11-.85 1.2-.76 1.31-.69 1.36-.6 1.45-.51 1.53-.44 1.6-.32 1.67-.26 1.69-.14 1.74-.06 1.76.06 1.78.12 1.78.24.29.07.24.09.22.13.16.16.13.2.09.22.05.26.02.27.06 136.34-.04.33-.15.25-.21.2-.31.11-2.44.51-2.32.34-1.13.11-1.12.09-1.08.04h-1.07l-1.05-.06-1.04-.07-1.01-.12-.99-.15-.98-.2-.94-.24-.96-.27-.93-.32-1.2-.48-1.16-.54-1.16-.62-1.13-.67-1.11-.77-1.09-.81-1.09-.91-1.05-.98-1.05-1.05-1.06-1.15-1.03-1.22-1.04-1.3-1.03-1.39-1.06-1.48-1.05-1.6-1.05-1.69-11.14-18.29-11.08-18.28-11.03-18.29-10.97-18.27-.47-.71-.4-.49-.33-.27-.14-.04h-.15l-.11.05-.09.13-.16.4-.09.62zm-130.42-2.54-.05 18.24-.04 18.27.02 18.33.05 18.34-.05 1.82-.17 1.73-.27 1.6-.38 1.52-.49 1.42-.62 1.34-.71 1.24-.4.58-.43.56-.76.87-.84.8-.93.75-.98.69-1.07.63-1.16.57-1.24.5-1.3.46-1.38.4-1.48.34-1.58.29-1.65.24-1.78.18-1.87.15-2 .09-2.18.03-.31-.03-.2-.13-.12-.2-.04-.27.02-137.22.02-.32.07-.27.11-.24.14-.2.2-.15.24-.1.27-.08.33-.02h1.76l4.34.04 3.05.11 2.67.2 1.2.14 1.15.19 1.14.21 1.09.26 1.05.29 1 .33.95.36.94.42.91.45.87.51 1.13.73 1.07.8 1.04.9.99.98.97 1.08.92 1.16.91 1.25.87 1.36 24.29 39.93 24.1 39.89.1.11.1.09.13.05.15.02.14-.03.13-.06.11-.09.09-.11.05-.13.02-.14.04-34.59-.04-34.75.02-1.43.07-1.38.11-1.33.15-1.29.2-1.23.25-1.18.29-1.13.33-1.09.4-1.03.42-.98.47-.95.52-.89.57-.83.6-.8.65-.75.69-.69.86-.73.9-.67.98-.6 1.04-.54 1.09-.47 1.14-.42 1.22-.37 1.27-.27 1.33-.23 1.38-.17 1.45-.09 1.51-.03 1.56.03 1.62.09 1.69.17 1.74.21.33.11.27.22.18.29.06.35-.67 136.74-.06.36-.16.27-.24.2-.34.13-2.42.44-2.31.29-2.19.12-1.08.02-1.03-.02-1.04-.07-1-.09-1-.13-.96-.18-.94-.2-.91-.25-.93-.27-.89-.33-1.21-.51-1.17-.56-1.16-.66-1.11-.71-1.12-.79-1.09-.88-1.09-.92-1.08-1.06-1.07-1.09-1.07-1.21-1.07-1.29-1.09-1.42-1.09-1.51-1.11-1.61-1.16-1.77-1.2-1.9-11.32-18.46-11.24-18.49-11.15-18.51-11.1-18.54-.18-.19-.24-.05-.25.07-.17.18zm-74.2 86.61-2.22 1.23-2.25 1.17-2.31 1.07-2.32.96-2.4.89-2.41.8-2.46.69-2.47.62-2.5.51-2.53.4-2.52.3-2.51.22-2.52.11-2.53.02-2.51-.09-2.49-.2-2.47-.29-2.43-.38-2.4-.49-2.38-.59-2.3-.67-2.29-.76-2.24-.85-2.18-.97-2.1-1.03-2.07-1.15-2-1.21-1.93-1.31-1.85-1.38-1.8-1.47-1.71-1.53-1.65-1.63-1.02-1.09-1-1.15-.96-1.14-.92-1.2-.9-1.22-.85-1.25-.82-1.27-.78-1.31-.76-1.34-.71-1.37-.67-1.38-.64-1.43-.6-1.44-.56-1.47-.53-1.47-.49-1.53-.29-1.03-.27-1.13-.25-1.23-.24-1.35-.44-2.96-.34-3.36-.27-3.76-.2-4.16-.15-4.58-.05-4.95-.06-18.55-.03-18.6.01-18.64.06-18.67v-.05l.04-.22.07-.2.11-.18.14-.17.18-.12.2-.08.22-.05h.22l4.69.38 4.63.38 1.74.18 1.55.2 1.47.24 1.36.27 1.27.29 1.18.33 1.15.38 1.07.42 1.02.47.92.51.89.56.8.6.75.66.7.7.49.58.46.6.42.64.4.67.36.71.33.75.29.76.27.8.24.83.19.89.17.89.14.95.19 2 .05 2.14v15.2l.07 15.22.15 15.19.23 15.2.09 3.33.15 3.07.22 2.79.27 2.55.31 2.27.38 2.01.46 1.75.49 1.49.36.87.4.85.43.86.49.83.51.84.57.82.58.81.63.78.66.77.67.74.73.71.72.69.77.67.79.64.8.58.82.56.82.53.83.47.84.46.85.39.86.37.87.33.87.29.87.25.87.2.9.16.85.13.87.07.85.06.88-.02.83-.04.86-.09 1.72-.29 1.71-.43.96-.31.96-.35.93-.4.93-.45.91-.49.89-.53.89-.58.85-.62.83-.67.8-.69.8-.74.77-.79.74-.81.71-.86.69-.89.65-.9.64-.97.6-1 .56-1.01.55-1.06.51-1.07.45-1.11.44-1.11.38-1.12.36-1.15.31-1.16.27-1.16.22-1.16.2-1.18.14-1.18.11-1.17.06-1.18.31-10.08.23-9.12.18-8.15.09-7.18.02-6.23-.05-5.23-.13-4.29-.2-3.3-.2-2.71-.13-2.56-.07-2.36v-2.24l.07-2.1.13-1.96.22-1.86.27-1.74.35-1.64.42-1.54.49-1.44.58-1.34.63-1.25.73-1.18.78-1.09.89-1 .89-.87.98-.8 1.07-.75 1.15-.69 1.21-.6 1.31-.54 1.4-.49 1.47-.42 1.58-.36 1.67-.31 1.77-.24 1.85-.18 1.96-.11 2.07-.07h2.2l2.29.05.42.07.16.1.14.1.11.13.08.18.05.42-.07 41.62.02 41.56-.04 3.05-.09 2.9-.16 2.76-.24 2.67-.29 2.55-.38 2.45-.44 2.34-.51 2.26-.6 2.18-.65 2.08-.75 2.04-.81 1.94-.91 1.89-.96 1.82-1.06 1.74-1.16 1.69-1.38 1.84-1.49 1.76-1.6 1.67-1.72 1.62-1.84 1.54-1.94 1.49-2.07 1.42zm343.43-18.91h52.68l.44.05.16.09.13.11.11.15.05.16.04.22-.02.24-.16 1.32-.2 1.27-.24 1.24-.27 1.2-.31 1.14-.33 1.09-.36 1.07-.4 1.02-.44.98-.45.95-.51.89-.55.87-.56.82-.6.78-.65.74-.67.71-1.06.98-1.11.87-1.19.82-1.29.74-1.38.68-1.48.6-1.54.54-1.65.47-1.75.4-1.83.35-1.98.29-2.09.24-2.25.18-2.42.12-2.63.08-2.94.03-24.58.04-24.61-.06-.39-.05-.16-.07-.13-.09-.09-.13-.07-.16-.05-.39V734.15l.05-.4.07-.17.11-.12.13-.11.16-.07.4-.06 82.6.06.21.01.22.08.2.1.17.15.12.18.09.2.06.22.02.22-.02.09-.35 1.85-.45 1.82-.53 1.78-.63 1.74-.73 1.67-.82 1.6-.89 1.53-.98 1.47-1.05 1.36-1.11 1.27-1.2 1.18-1.25 1.07-1.29.99-1.38.87-1.42.76-1.47.67-1 .37-1.02.32-1.01.28-1.06.23-1.07.16-1.07.13-1.09.09-1.11.02-28.81.02-.42.07-.16.07-.13.11-.09.13-.07.15-.05.4v26.77l.05.4.07.14.11.15.13.09.14.07.4.06h40.37l.3.03.24.15.15.22.05.31.02 1.38-.02 1.34-.05 1.31-.11 1.25-.15 1.22-.18 1.16-.24 1.15-.29 1.07-.32 1.05-.37 1-.42.96-.43.91-.51.89-.54.84-.59.81-.63.75-1.06 1.09-1.18 1-1.25.89-1.38.82-1.49.72-1.6.64-1.72.54-1.86.47-1.9.39-2.04.29-2.2.23-2.34.17-2.45.07-2.73.04-3.03-.04-4.1-.09-3.87-.09-.44.05-.16.07-.15.11-.11.13-.07.16-.05.42v34.06l.05.4.07.15.11.14.13.09.14.07z" style="fill-rule:evenodd;fill:#19244d"/><text style="font-family:ArialMT,Arial;font-size:36.75px" transform="matrix(.98 0 0 1 174.92 922.58)"><tspan x="0" y="0">UNIVERSI</tspan><tspan x="173.58" y="0" style="letter-spacing:-.07em">T</tspan><tspan x="193.3" y="0">AS NEGERI SEMARANG</tspan></text></svg>