<svg xmlns="http://www.w3.org/2000/svg" width="2500" height="2500" fill="none" viewBox="0 0 2500 2500"><path fill="#0acf83" d="M832.834 2500c229.996 0 416.666-186.67 416.666-416.67v-416.66H832.834c-230 0-416.667 186.66-416.667 416.66S602.834 2500 832.834 2500"/><path fill="#a259ff" d="M416.167 1250c0-230 186.667-416.667 416.667-416.667H1249.5v833.337H832.834c-230 0-416.667-186.67-416.667-416.67"/><path fill="#f24e1e" d="M416.167 416.667C416.167 186.667 602.834 0 832.834 0H1249.5v833.333H832.834c-230 0-416.667-186.666-416.667-416.666"/><path fill="#ff7262" d="M1249.5 0h416.67c230 0 416.66 186.667 416.66 416.667s-186.66 416.666-416.66 416.666H1249.5z"/><path fill="#1abcfe" d="M2082.83 1250c0 230-186.66 416.67-416.66 416.67S1249.5 1480 1249.5 1250s186.67-416.667 416.67-416.667S2082.83 1020 2082.83 1250"/></svg>