<svg width="100" height="100" viewBox="0 0 100 100" fill="none" xmlns="http://www.w3.org/2000/svg">
<path fill-rule="evenodd" clip-rule="evenodd" d="M90 50C90 72.0958 72.0958 90 50 90C27.9042 90 10 72.0958 10 50C10 27.9042 27.9042 10 50 10C72.0958 10 90 27.9042 90 50Z" fill="#6706CE"/>
<path fill-rule="evenodd" clip-rule="evenodd" d="M47.0884 45.6303C41.2201 50.1812 33.7949 54.7919 33.0165 62.1572C32.7171 65.0913 34.2141 69.8219 35.9506 72.9357C36.0704 73.1752 36.1303 73.4147 36.1303 73.7141C36.0704 74.4925 35.4716 75.0913 34.6931 75.0913C34.1542 75.0913 33.6752 74.7919 33.1961 74.4925C31.0404 73.1752 29.0644 71.4985 27.5075 69.5824C27.0285 68.9836 26.6093 68.3847 26.25 67.7859C25.8907 67.1871 25.5913 66.5285 25.2919 65.8698C24.9925 65.2111 24.8129 64.5524 24.6333 63.8937C24.4536 63.235 24.3339 62.5764 24.2141 61.8578C24.1542 61.1991 24.0943 60.4806 24.0943 59.8219C24.0943 59.1033 24.1542 58.4446 24.274 57.7261C24.3937 57.0075 24.5135 56.3488 24.6931 55.6303C26.9087 47.3069 35.9506 40.4207 43.0165 39.5225C49.1842 38.8039 50.8009 42.756 47.0884 45.6303ZM76.5494 58.4446C76.1902 57.5464 75.1722 57.0075 74.2141 57.0674C73.5554 57.1273 73.0165 57.4865 72.5375 57.9656C71.8189 58.6243 71.28 59.5225 70.7411 60.3608C70.0824 61.3189 69.4237 62.2171 68.7051 63.1153C67.268 64.8518 65.5913 66.4087 63.6752 67.6063C60.3818 69.5824 57.3878 70.5404 53.7949 68.744C51.1602 66.6482 52.0584 64.1333 54.2141 62.0973C57.9866 58.6243 62.4776 56.1692 66.0105 52.4566C69.3638 48.9237 72.2979 44.5524 72.9566 39.7021C73.1363 38.3249 73.1363 36.9476 72.9566 35.5704C71.9387 29.1033 66.0704 25.0315 60.2021 23.2949C52.7171 21.0794 44.4536 21.738 37.3878 25.0315C34.4536 26.4087 31.759 28.2051 29.4237 30.3608C28.4057 31.3189 27.3878 32.3368 26.4895 33.4746C24.9925 35.271 23.3159 37.3069 23.0165 39.7021C22.8369 41.1392 24.1542 42.1572 25.5315 41.9776C26.4895 41.8578 27.268 41.3189 27.9866 40.6602C28.765 39.9416 29.4836 39.1632 30.262 38.4446C32.5973 36.2291 35.0524 34.1332 37.9866 32.756C41.759 31.0195 45.9506 30.1213 50.0824 30.6003C54.274 31.0195 59.3638 32.9356 60.9207 37.247C62.5375 41.7979 59.0644 46.2291 55.9506 49.1033C50.8608 53.8339 41.1602 58.6243 42.238 67.0075C42.8369 71.4985 46.0105 75.271 50.1422 77.0075C57.268 79.9417 65.0524 76.3488 69.9626 70.8398C71.6393 69.1033 74.0345 66.0494 76.1901 61.5584C76.6093 60.6003 76.9087 59.4027 76.5494 58.4446Z" fill="white"/>
</svg>
